<?xml version="1.0" encoding="utf-8"?>
<!-- Generator: Adobe Illustrator 28.0.0, SVG Export Plug-In . SVG Version: 6.00 Build 0)  -->
<svg version="1.1" id="Capa_1" xmlns="http://www.w3.org/2000/svg" xmlns:xlink="http://www.w3.org/1999/xlink" x="0px" y="0px"
	 viewBox="0 0 73.19 97.96" style="enable-background:new 0 0 73.19 97.96;" xml:space="preserve">
<style type="text/css">
	.st0{fill:#FFFFFF;}
	.st1{fill:#FFC800;}
	.st2{fill:#003189;}
	.st3{fill:#D80025;}
	.st4{fill:#D7723F;}
	.st5{fill:#FDC603;}
	.st6{fill:#223A7A;}
	.st7{fill:#D70E27;}
</style>
<g>
	<g>
		<g>
			<path class="st4" d="M13.39,74.73l8.73-19.29h2.87l8.73,19.29h-3.56l-2.33-5.42l1.48,0.96H17.76l1.48-0.96l-2.3,5.42H13.39z
				 M23.51,59.24l-3.83,9.11l-0.71-0.88h9.14l-0.68,0.88l-3.86-9.11H23.51z"/>
			<path class="st4" d="M35.83,74.73V55.44h2.63l11.08,14.4h-0.71v-14.4h3.26v19.29h-2.6L38.4,60.31h0.68v14.42H35.83z"/>
			<path class="st4" d="M56.3,74.73V55.44h3.5v19.29H56.3z"/>
		</g>
	</g>
	<g>
		<path class="st4" d="M39.19,27.45c0.1,0.11,0.28,0.16,0.46,0.08c0.03,0.08,0.1,0.15,0.18,0.18c0.04,0.01,0.08,0.02,0.12,0.02
			c0.1,0,0.2-0.04,0.3-0.12c0.12,0.17,0.41,0.22,0.72,0.22c0.18,0,0.36-0.01,0.51-0.03c0.09-0.01,0.16-0.01,0.22-0.01
			c0.39-0.02,0.66-0.1,0.87-0.36c0.2,0.07,0.71,0.2,1.27-0.57c0.16-0.05,0.97-0.35,0.83-1.22c0.12-0.11,0.5-0.52,0.28-1.04
			c0.03-0.11,0.12-0.5-0.07-0.69c-0.04-0.08-0.21-0.45-0.53-0.51c-0.19-0.04-0.39,0.04-0.59,0.25c-0.03,0.03-0.12,0.12-0.14,0.21
			c-0.18,0.1-0.26,0.29-0.28,0.36c-0.14,0.07-0.23,0.22-0.26,0.3c-0.26-0.05-0.55,0.01-0.87,0.18c-0.22-0.16-0.47-0.25-0.74-0.25
			c0,0,0,0,0,0c-0.35-0.01-0.69,0.15-0.96,0.46c-0.35,0.39-0.53,0.96-0.48,1.51c-0.07,0-0.15,0.02-0.21,0.06
			c-0.11,0.08-0.19,0.22-0.2,0.37l0,0l0,0c-0.15-0.01-0.29,0.03-0.38,0.13C39.06,27.17,39.1,27.36,39.19,27.45z M43.17,24.69
			c0.37,0.14,0.52,0.55,0.52,0.56l0.14-0.05c-0.01-0.02-0.17-0.48-0.61-0.65c0,0,0,0,0,0c0.04-0.08,0.12-0.21,0.26-0.24
			c0.14-0.03,0.4,0.05,0.8,0.56l0.11-0.09c-0.33-0.42-0.63-0.63-0.88-0.62c0.04-0.07,0.11-0.17,0.22-0.21c0.18-0.07,0.42,0,0.72,0.2
			l0.08-0.12c-0.27-0.18-0.51-0.26-0.71-0.24c0.01-0.01,0.02-0.03,0.03-0.04c0.16-0.16,0.32-0.23,0.46-0.21
			c0.27,0.05,0.43,0.43,0.43,0.44L44.76,24l0.01,0.01c0.13,0.12,0.07,0.45,0.03,0.57l-0.01,0.03l0.01,0.03
			c0.24,0.51-0.24,0.9-0.26,0.92l-0.03,0.03l0.01,0.04c0.17,0.86-0.7,1.09-0.74,1.1l-0.03,0.01l-0.02,0.02
			c-0.43,0.61-0.87,0.61-1.09,0.56c0.35-0.56,0.37-1.39,0.03-2.04c-0.1-0.19-0.21-0.34-0.35-0.47
			C42.65,24.64,42.93,24.6,43.17,24.69z M39.33,27.08c0.09-0.08,0.2-0.09,0.26-0.08c0.06,0.01,0.1-0.01,0.12-0.03
			c0.02-0.02,0.05-0.06,0.04-0.11c0.01-0.11,0.06-0.21,0.13-0.26c0.08-0.05,0.18-0.05,0.25,0l0.13,0.11l-0.02-0.17
			c0-0.05,0.01-0.08,0.04-0.11c0.06-0.05,0.16-0.08,0.26-0.06c0.06,0.01,0.26,0.04,0.3,0.18l0.05,0.17l0.08-0.16
			c0.09-0.17,0.27-0.23,0.4-0.21c0.13,0.02,0.22,0.11,0.25,0.26l0.14-0.02c-0.03-0.21-0.17-0.35-0.37-0.38
			c-0.04-0.01-0.07-0.01-0.11,0c0.04-0.22,0.19-0.77,0.63-0.89c0.08,0.09,0.15,0.2,0.2,0.33c0.21,0.51,0.13,1.19-0.19,1.57
			l0.11,0.09c0.35-0.43,0.45-1.15,0.21-1.72c-0.16-0.4-0.45-0.64-0.81-0.68c-0.29-0.03-0.58,0.1-0.81,0.36
			c-0.21,0.24-0.35,0.57-0.4,0.93c0,0.01,0,0.05-0.01,0.08c-0.02,0.01-0.04,0.02-0.05,0.04c-0.02,0.01-0.03,0.03-0.04,0.05
			c-0.03-0.49,0.13-1,0.45-1.35c0.24-0.27,0.55-0.42,0.85-0.41c0,0,0,0,0,0c0.44,0,0.83,0.27,1.08,0.74c0.32,0.62,0.3,1.4-0.04,1.93
			c-0.13,0.26-0.56,0.38-0.81,0.38c-0.06,0-0.14,0.01-0.23,0.01c-0.35,0.03-0.99,0.08-1.11-0.14l-0.02-0.04l-0.04-0.11
			c-0.1,0.12-0.26,0.26-0.41,0.2c-0.06-0.02-0.11-0.08-0.1-0.15l0.02-0.16l-0.13,0.1c-0.14,0.1-0.3,0.08-0.37,0
			C39.23,27.28,39.24,27.18,39.33,27.08z M40.4,26.22c0.04-0.33,0.17-0.63,0.36-0.86c0.2-0.23,0.44-0.34,0.68-0.31
			c0.13,0.01,0.25,0.06,0.36,0.14c-0.5,0.2-0.63,0.85-0.66,1.03c-0.08,0.03-0.16,0.09-0.22,0.16c-0.08-0.09-0.2-0.15-0.36-0.16
			C40.53,26.2,40.46,26.21,40.4,26.22z"/>
		<path class="st4" d="M30.56,25.64c-0.14,0.87,0.67,1.17,0.83,1.22c0.36,0.5,0.74,0.62,1.02,0.62c0.18,0,0.31-0.05,0.36-0.07
			c0.14,0.04,0.27,0.06,0.4,0.06c0.16,0,0.32-0.03,0.48-0.09c0.04,0.04,0.11,0.08,0.25,0.08c0.14,0,0.3-0.01,0.45-0.08
			c0.05,0.06,0.14,0.08,0.26,0.08c0.24,0,0.47-0.02,0.66-0.14c0.04,0.03,0.1,0.05,0.17,0.05c0.35,0.02,0.72,0.03,1.07-0.01
			c0.08,0,0.14-0.04,0.16-0.11c0.02-0.07-0.01-0.14-0.09-0.19c-0.01-0.01-0.03-0.02-0.04-0.03c-0.03-0.01-0.05-0.03-0.06-0.04
			c0-0.01-0.01-0.01-0.01-0.02c-0.01-0.02-0.02-0.04-0.04-0.06l-0.02-0.02c-0.11-0.05-0.25-0.06-0.39-0.07
			c-0.06-0.01-0.12-0.01-0.18-0.02c-0.04-0.14-0.2-0.23-0.35-0.24c-0.01,0-0.04,0-0.04-0.01c-0.01,0-0.01-0.02-0.02-0.03
			c-0.01-0.01-0.01-0.02-0.02-0.02c-0.06-0.07-0.13-0.11-0.21-0.12c0.04-0.53-0.13-1.07-0.48-1.46c-0.27-0.29-0.6-0.45-0.94-0.45
			c-0.01,0-0.02,0-0.03,0c-0.27,0-0.52,0.09-0.74,0.25c-0.32-0.17-0.61-0.24-0.87-0.18c-0.04-0.08-0.12-0.23-0.26-0.3
			c-0.02-0.07-0.1-0.25-0.28-0.36c-0.03-0.09-0.11-0.18-0.14-0.21c-0.2-0.2-0.4-0.28-0.59-0.25c-0.31,0.06-0.49,0.43-0.53,0.51
			c-0.19,0.18-0.1,0.57-0.07,0.69C30.06,25.12,30.44,25.53,30.56,25.64z M35.3,26.57l0.01,0.02c0.01,0.02,0.03,0.05,0.06,0.07
			c0.04,0.02,0.08,0.03,0.12,0.03c0.1,0.01,0.21,0.07,0.21,0.16l0,0.06l0.06,0.01c0.07,0.01,0.16,0.02,0.24,0.03
			c0.12,0.01,0.24,0.02,0.33,0.05c0,0,0,0.01,0,0.01c0.01,0.01,0.01,0.02,0.02,0.03c0.03,0.05,0.07,0.07,0.11,0.09
			c0.01,0.01,0.02,0.01,0.03,0.02c0.02,0.02,0.03,0.03,0.03,0.03h0c0,0-0.01,0.01-0.04,0.01c-0.35,0.05-0.71,0.03-1.05,0.01
			c-0.07,0-0.1-0.02-0.1-0.03l-0.03-0.11l-0.09,0.07c-0.15,0.13-0.38,0.15-0.63,0.15c-0.07,0-0.15-0.01-0.16-0.05l-0.02-0.11
			l-0.09,0.06c-0.12,0.08-0.26,0.09-0.45,0.09c-0.08,0-0.14-0.01-0.15-0.04l-0.02-0.08l-0.08,0.04c-0.08,0.04-0.18,0.06-0.28,0.08
			c-0.35-0.36-0.48-1.02-0.3-1.56c0.04-0.12,0.11-0.29,0.24-0.42c0.46,0.12,0.6,0.75,0.64,0.96l-0.1,0l0.01,0.15l0.68-0.03
			c0.07,0,0.12,0,0.15,0.02c0.07,0.06,0.13,0.09,0.2,0.09c0.04,0,0.08,0,0.12,0C35.12,26.49,35.24,26.49,35.3,26.57z M33.42,25.19
			c0.1-0.07,0.21-0.13,0.36-0.14c0.2-0.03,0.41,0.06,0.6,0.23c0.28,0.26,0.44,0.66,0.44,1.05c-0.02-0.01-0.04-0.02-0.06-0.04
			c-0.08-0.06-0.18-0.05-0.25-0.05l-0.44,0.02C34.05,26.04,33.91,25.39,33.42,25.19z M33.76,24.6C33.77,24.6,33.77,24.6,33.76,24.6
			c0.31,0,0.61,0.14,0.85,0.41c0.32,0.35,0.48,0.86,0.45,1.35c-0.02,0-0.04,0-0.07,0c-0.01,0-0.02,0-0.03,0
			c0.01-0.43-0.18-0.88-0.49-1.17c-0.22-0.21-0.48-0.3-0.72-0.27c-0.39,0.05-0.7,0.33-0.85,0.78c-0.16,0.49-0.11,1.18,0.26,1.63
			c-0.16,0.01-0.31-0.01-0.46-0.05c-0.34-0.52-0.36-1.3-0.04-1.92C32.93,24.86,33.32,24.6,33.76,24.6z M30.42,24.58
			c-0.04-0.12-0.1-0.45,0.03-0.57L30.47,24l0.01-0.02c0,0,0.16-0.38,0.43-0.44c0.14-0.03,0.29,0.04,0.46,0.21
			c0.01,0.01,0.02,0.02,0.03,0.04c-0.2-0.02-0.44,0.06-0.71,0.24l0.08,0.12c0.29-0.2,0.53-0.26,0.71-0.2
			c0.12,0.04,0.19,0.14,0.22,0.21c-0.25-0.01-0.55,0.2-0.88,0.62l0.11,0.09c0.4-0.51,0.66-0.59,0.8-0.56
			c0.14,0.03,0.22,0.16,0.26,0.24c0,0,0,0,0,0c-0.44,0.17-0.6,0.63-0.61,0.65l0.14,0.05c0,0,0.14-0.41,0.52-0.56
			c0.24-0.09,0.52-0.05,0.85,0.11c-0.13,0.13-0.25,0.28-0.35,0.47c-0.34,0.65-0.32,1.48,0.03,2.04c-0.22,0.05-0.66,0.05-1.09-0.56
			l-0.02-0.02l-0.03-0.01c-0.04-0.01-0.91-0.24-0.74-1.1l0.01-0.04l-0.03-0.03c-0.02-0.02-0.5-0.4-0.26-0.92l0.01-0.03L30.42,24.58z
			"/>
		<path class="st4" d="M37.55,26.84c-0.01,0.24-0.03,0.5-0.08,0.77l-0.01,0.03l0.02,0.02c0.01,0.01,0.16,0.21,0.43,0.3L37.99,28
			l0.01-0.09c0-0.03,0.09-0.69,0.01-1.4c0.89-0.27,1.17-1.17,1.25-1.55c0.05-0.22,0.03-0.23,0-0.26l-0.03-0.03l-0.04,0.01
			c-0.76,0.29-1.11,0.85-1.28,1.27c-0.06-0.23-0.14-0.43-0.24-0.59c0.73-0.08,1.31-0.7,1.31-1.45c0-0.42-0.18-0.8-0.48-1.07
			l0.36-0.44l-0.68,0.08l-0.21-0.35l-0.35,0.22l-0.28-0.22l-0.14,0.28l-0.62-0.24l0.17,0.5c-0.47,0.27-0.7,0.78-0.7,1.25
			c0,0.6,0.36,1.26,1.15,1.42c0.03,0.04,0.2,0.29,0.28,0.8c-0.26-0.39-0.72-0.85-1.5-0.98l-0.06-0.01l-0.02,0.06
			c-0.02,0.06,0.15,0.47,0.34,0.75C36.51,26.32,36.92,26.77,37.55,26.84z M37.98,26.27c0.1-0.38,0.38-1.04,1.16-1.39
			c-0.06,0.33-0.3,1.25-1.19,1.51L37.98,26.27z M38.53,22.6l-0.13,0.16c-0.06-0.05-0.13-0.09-0.2-0.12L38.53,22.6z M38.84,23.93
			c0,0.59-0.39,1.09-0.93,1.25c0.86-1.16,0.25-2.14-0.05-2.51C38.43,22.81,38.84,23.32,38.84,23.93z M37.94,22.35l0.14,0.23
			c-0.11-0.05-0.24-0.08-0.36-0.09L37.94,22.35z M37.41,22.36l0.13,0.11c-0.01,0-0.01,0-0.02,0c-0.06,0-0.12,0.01-0.17,0.01
			L37.41,22.36z M37.12,22.53c-0.08,0.02-0.15,0.05-0.22,0.08l-0.06-0.19L37.12,22.53z M36.22,23.93c0-0.54,0.32-1.12,1.02-1.27
			c-0.31,0.37-0.93,1.35-0.07,2.53C36.52,25,36.22,24.44,36.22,23.93z M37.46,22.62c0.02,0,0.04,0,0.07-0.01
			c0.04,0,0.07,0,0.11,0.01c0.15,0.14,1.2,1.24,0.06,2.6c-0.05,0.01-0.11,0.01-0.17,0.01c-0.05,0-0.1-0.01-0.15-0.01
			C36.26,23.86,37.31,22.76,37.46,22.62z M37.42,25.37c0.03,0,0.06,0.01,0.1,0.01c0.15,0.22,0.26,0.51,0.32,0.88l0.02,0.14
			l0.01,0.06c0.07,0.56,0.03,1.11,0.01,1.33c-0.13-0.07-0.22-0.15-0.25-0.2c0.05-0.29,0.07-0.57,0.08-0.83l0-0.07l-0.01-0.23l0,0
			C37.65,25.89,37.51,25.54,37.42,25.37z M37.55,26.52l0.09,0.18l-0.01,0c-0.93-0.07-1.39-1.04-1.52-1.37
			C36.96,25.52,37.37,26.15,37.55,26.52z"/>
		<path class="st4" d="M32.59,13.04c-0.06-0.07-0.06-0.2-0.02-0.28c0.01-0.02,0.03-0.05,0.05-0.07c0,0,0.01-0.01,0.01-0.01
			c-0.09,0.04-0.21,0-0.25-0.09c-0.05-0.11,0.02-0.25,0.13-0.29c-0.09,0.01-0.17,0.06-0.26,0.1c-0.09,0.03-0.2,0.04-0.27-0.02
			c-0.07-0.06-0.08-0.17-0.05-0.25c0.03-0.09,0.1-0.15,0.16-0.22c-0.14,0.03-0.27,0.17-0.41,0.13c-0.14-0.05-0.16-0.25-0.08-0.38
			c0.08-0.13,0.21-0.21,0.29-0.34c-0.22,0.1-0.45,0.18-0.68,0.24c-0.08,0.02-0.18,0.03-0.24-0.02c-0.05-0.04-0.04-0.12,0-0.16
			l-0.33,0.11c-0.08,0.03-0.16,0.05-0.24,0.03c-0.08-0.02-0.14-0.12-0.09-0.18c-0.12,0.07-0.25,0.14-0.38,0.13
			c-0.08-0.01-0.14-0.05-0.18-0.12c-0.05-0.08-0.01-0.12,0.06-0.18c-0.13,0.05-0.26,0.21-0.22,0.36c0.03,0.11,0.16,0.16,0.27,0.15
			c0.11-0.01,0.21-0.07,0.31-0.13c-0.04,0.03,0.08,0.16,0.1,0.17c0.08,0.06,0.2,0.07,0.29,0.05c0.06-0.01,0.11-0.03,0.16-0.06
			c0.02-0.01,0.15-0.07,0.15-0.09c0,0.07,0.1,0.09,0.17,0.09c0.15,0,0.29-0.01,0.44-0.01c-0.1,0.09-0.13,0.26-0.06,0.38
			c0.07,0.12,0.22,0.19,0.36,0.15c-0.11,0.12-0.02,0.35,0.14,0.4c0.14,0.04,0.29-0.02,0.38-0.13c-0.01,0.02-0.02,0.04-0.03,0.06
			c-0.01,0.02-0.02,0.04-0.03,0.06c-0.02,0.04-0.02,0.09-0.02,0.14c0.01,0.04,0.02,0.08,0.05,0.11c0.02,0.03,0.05,0.06,0.08,0.07
			c0.02,0.01,0.04,0.01,0.05,0.01c0.05,0,0.08-0.02,0.12-0.05c-0.02,0.04-0.05,0.08-0.07,0.13c-0.02,0.04-0.04,0.09-0.05,0.14
			c-0.01,0.11,0.08,0.21,0.19,0.23c0.06,0.01,0.13,0,0.18-0.03c0.12-0.07,0.19-0.21,0.25-0.33C32.9,13.15,32.69,13.16,32.59,13.04z"
			/>
		<path class="st4" d="M27.1,11.54c0.09-0.02,0.17-0.08,0.25-0.13c0.02-0.01,0.05-0.02,0.07-0.01c0.02,0.01,0.02,0.04,0.02,0.06
			c0.01,0.11,0.12,0.19,0.23,0.2c0.11,0.01,0.22-0.04,0.31-0.1c0,0.02-0.01,0.04-0.01,0.06c0.05,0.07,0.14,0.11,0.22,0.11
			c0.09,0,0.17-0.02,0.25-0.05c0.1-0.03,0.22-0.07,0.28-0.16c-0.05,0.05-0.12,0.11-0.19,0.1c-0.08-0.01-0.13-0.11-0.12-0.19
			c0.01-0.08,0.07-0.15,0.12-0.21c-0.14,0.09-0.3,0.15-0.46,0.2c-0.07,0.02-0.14,0.03-0.2,0.02c-0.07-0.02-0.13-0.08-0.12-0.15
			c0-0.04,0.03-0.07,0.05-0.1c0.04-0.04,0.09-0.08,0.14-0.11c-0.13,0.05-0.26,0.11-0.4,0.16c-0.1,0.04-0.2,0.08-0.31,0.07
			c-0.11-0.01-0.22-0.08-0.23-0.18c-0.01-0.04,0-0.08,0.02-0.12c-0.02,0.01-0.04,0.02-0.05,0.03c-0.07,0.05-0.13,0.11-0.17,0.19
			c-0.04,0.08-0.04,0.17,0.02,0.24C26.9,11.54,27.01,11.56,27.1,11.54z"/>
		<path class="st4" d="M33.74,9.22c-0.01,0-0.03,0.01-0.04,0.01c-0.01,0-0.02,0.01-0.03,0.01c-0.05,0.02-0.1,0.03-0.15,0.03
			c-0.08,0-0.16-0.05-0.18-0.13C33.33,9.1,33.35,9.04,33.32,9c-0.03-0.04-0.09-0.04-0.15-0.03c-0.12,0.02-0.37,0.2-0.46,0.05
			C32.7,8.99,32.7,8.96,32.7,8.93c0-0.02,0.01-0.04,0.02-0.06c-0.11,0.09-0.21,0.12-0.33,0.18c-0.12,0.06-0.24,0.12-0.36,0.17
			c-0.07,0.03-0.17,0.05-0.23-0.02c-0.07-0.09,0.01-0.23,0.07-0.3c0.06-0.08,0.07-0.08,0.15-0.13c-0.32,0.13-0.59,0.19-0.93,0.31
			c-0.34,0.12-0.68,0.27-0.94,0.52c-0.04,0.04-0.08,0.08-0.09,0.14c-0.01,0.06,0.02,0.12,0.07,0.13c-0.38,0.12-0.71,0.38-0.93,0.71
			c-0.04,0.07-0.08,0.17-0.02,0.23c0.03,0.03,0.07,0.03,0.11,0.03c0.11,0,0.22-0.04,0.31-0.1c-0.06-0.04-0.07-0.13-0.05-0.2
			s0.08-0.13,0.13-0.18c0.22-0.2,0.47-0.36,0.75-0.47c-0.04,0.02-0.09-0.03-0.09-0.07c0-0.05,0.03-0.09,0.06-0.12
			c0.03-0.03,0.05-0.06,0.08-0.09c0.13-0.13,0.28-0.23,0.44-0.31c0.17-0.09,0.35-0.15,0.53-0.21c0.03-0.01,0.05-0.02,0.08-0.02
			c0.01,0,0.07-0.02,0.07-0.02c-0.05,0.17-0.07,0.42,0.18,0.42c0.25,0,0.5-0.11,0.66-0.3c-0.05,0.08-0.1,0.18-0.04,0.26
			c0.05,0.07,0.16,0.07,0.24,0.05c0.2-0.05,0.38-0.14,0.53-0.28c-0.06,0.08-0.12,0.2-0.05,0.27c0.01,0.01,0.02,0.02,0.03,0.02
			c0.04,0.02,0.09,0.02,0.14,0.01c0.07-0.01,0.13-0.03,0.2-0.06c0.08-0.04,0.16-0.09,0.22-0.15C33.72,9.26,33.76,9.22,33.74,9.22z"
			/>
		<path class="st4" d="M28.64,13.24c-0.3,0.15-0.61,0.26-0.94,0.32c-0.1,0.02-0.23,0.01-0.25-0.09c-0.01-0.04,0.02-0.08,0.04-0.12
			c0.11-0.17,0.26-0.3,0.44-0.4c-0.29,0.14-0.59,0.23-0.91,0.28c-0.13,0.02-0.3-0.01-0.31-0.13c0-0.05,0.03-0.1,0.06-0.14
			c0.12-0.15,0.27-0.28,0.43-0.38c-0.26,0.17-0.55,0.3-0.85,0.39c-0.12,0.04-0.27,0.06-0.37-0.01c-0.07-0.05-0.08-0.16-0.04-0.23
			c-0.18,0.1-0.39,0.16-0.59,0.14c-0.04,0-0.08-0.01-0.11-0.03c-0.1-0.09,0.02-0.25,0.1-0.34c-0.12,0.12-0.24,0.24-0.33,0.39
			c-0.05,0.08-0.08,0.2,0,0.25c0.03,0.02,0.07,0.02,0.1,0.02c0.07,0,0.14-0.01,0.22-0.02c0.04-0.01,0.09-0.02,0.13-0.03
			c0.05-0.01,0.1-0.03,0.15-0.05c0.02-0.01,0.12-0.04,0.13-0.06c-0.07,0.17,0.12,0.36,0.31,0.36c0.19,0.01,0.36-0.1,0.51-0.21
			c-0.06,0.09,0,0.22,0.1,0.26c0.1,0.05,0.21,0.03,0.32,0.01c0.18-0.04,0.36-0.09,0.54-0.17c-0.07,0.17-0.31,0.3-0.23,0.46
			c0.03,0.07,0.12,0.09,0.19,0.11c0.29,0.05,0.6-0.01,0.85-0.18c0.05-0.04,0.11-0.08,0.18-0.08c0.05,0,0.1,0.04,0.14,0.06
			c0.1,0.04,0.22,0.03,0.31-0.02C28.78,13.6,28.61,13.42,28.64,13.24z"/>
		<path class="st4" d="M24.74,14.44c-0.01-0.04,0-0.09,0.02-0.13c0.01-0.01,0.02-0.02,0.02-0.04c-0.02,0-0.03,0.02-0.05,0.03
			c-0.02,0.01-0.03,0.02-0.05,0.03c-0.03,0.02-0.07,0.04-0.11,0.05c-0.07,0.03-0.15,0.05-0.23,0.06c-0.05,0.01-0.11,0.01-0.16,0
			c-0.03,0-0.05-0.01-0.08-0.01c-0.02,0-0.05,0-0.06-0.02C24.01,14.39,24,14.36,24,14.33c0-0.03,0-0.06,0.01-0.09
			c0-0.01,0.01-0.02,0.01-0.02c0.01-0.02,0.02-0.05,0.04-0.07c0.02-0.02,0.03-0.04,0.05-0.06c-0.17,0.11-0.37,0.2-0.57,0.24
			c-0.03,0.01-0.07,0.01-0.09-0.01c-0.06-0.04-0.03-0.12,0.01-0.18c0.17-0.26,0.37-0.49,0.6-0.7c-0.25,0.16-0.47,0.36-0.67,0.57
			c-0.08,0.09-0.16,0.21-0.13,0.32c0.03,0.1,0.15,0.15,0.26,0.14c0.11-0.01,0.2-0.06,0.3-0.11c0.02-0.01,0.05-0.03,0.07-0.04
			c0.02-0.01,0.05-0.02,0.07-0.03c-0.03,0.07-0.04,0.15-0.03,0.23c0,0.03,0.01,0.07,0.03,0.1c0.02,0.03,0.05,0.05,0.08,0.06
			c0.04,0,0.08,0,0.11-0.01c0.05-0.01,0.11-0.03,0.16-0.05c0.08-0.03,0.15-0.07,0.22-0.11c0.05-0.03,0.1-0.07,0.15-0.11
			c0.01-0.01,0.02-0.02,0.03-0.02c0,0.01,0,0.03-0.01,0.04c-0.01,0.02-0.01,0.03-0.01,0.05c-0.01,0.04,0,0.07,0.01,0.11
			c0.02,0.04,0.05,0.08,0.09,0.1c0.02,0.01,0.04,0.01,0.06,0.01c0.02,0,0.04,0.01,0.07,0c0.08-0.01,0.15-0.05,0.21-0.09
			c0.19-0.13,0.34-0.32,0.44-0.53c-0.21,0.15-0.44,0.27-0.67,0.37C24.85,14.45,24.75,14.48,24.74,14.44z"/>
		<path class="st4" d="M45.31,11.16c0.07,0.06,0.11,0.1,0.06,0.18c-0.04,0.07-0.1,0.11-0.18,0.12c-0.14,0.02-0.27-0.06-0.38-0.13
			c0.04,0.07-0.02,0.16-0.09,0.18c-0.08,0.02-0.16,0-0.24-0.03l-0.33-0.11c0.04,0.04,0.04,0.12,0,0.16
			c-0.06,0.05-0.16,0.04-0.24,0.02c-0.23-0.05-0.46-0.13-0.68-0.24c0.08,0.12,0.21,0.21,0.29,0.34c0.08,0.13,0.06,0.33-0.08,0.38
			c-0.14,0.05-0.27-0.09-0.41-0.13c0.06,0.07,0.13,0.13,0.16,0.22c0.03,0.09,0.02,0.19-0.05,0.25c-0.07,0.06-0.18,0.05-0.27,0.02
			c-0.09-0.03-0.17-0.08-0.26-0.1c0.11,0.04,0.18,0.18,0.13,0.29c-0.04,0.09-0.16,0.13-0.25,0.09c0,0,0.01,0.01,0.01,0.01
			c0.02,0.02,0.04,0.04,0.05,0.07c0.04,0.08,0.04,0.21-0.02,0.28c-0.1,0.12-0.32,0.11-0.41-0.01c0.06,0.13,0.12,0.26,0.25,0.33
			c0.05,0.03,0.12,0.04,0.18,0.03c0.11-0.02,0.2-0.11,0.19-0.23c-0.01-0.05-0.02-0.09-0.05-0.14c-0.02-0.04-0.05-0.08-0.07-0.13
			c0.03,0.03,0.07,0.05,0.12,0.05c0.02,0,0.04,0,0.05-0.01c0.04-0.01,0.06-0.04,0.08-0.07c0.02-0.03,0.04-0.07,0.05-0.11
			c0.01-0.05,0-0.09-0.02-0.14c-0.01-0.02-0.02-0.04-0.03-0.06c-0.01-0.02-0.02-0.04-0.03-0.06c0.09,0.11,0.25,0.17,0.38,0.13
			c0.16-0.05,0.25-0.27,0.14-0.4c0.14,0.04,0.29-0.03,0.36-0.15c0.07-0.12,0.04-0.29-0.06-0.38c0.15,0,0.29,0.01,0.44,0.01
			c0.07,0,0.17-0.02,0.17-0.09c0,0.02,0.13,0.08,0.15,0.09c0.05,0.03,0.1,0.05,0.16,0.06c0.09,0.02,0.21,0,0.29-0.05
			c0.02-0.01,0.14-0.14,0.1-0.17c0.1,0.06,0.2,0.12,0.31,0.13c0.11,0.01,0.24-0.05,0.27-0.15C45.57,11.38,45.44,11.22,45.31,11.16z"
			/>
		<path class="st4" d="M46.56,11.62c-0.07,0.01-0.14-0.05-0.19-0.1c0.06,0.09,0.17,0.13,0.28,0.16c0.08,0.02,0.17,0.05,0.25,0.05
			c0.09,0,0.18-0.04,0.22-0.11c0-0.02-0.01-0.04-0.01-0.06c0.09,0.06,0.2,0.11,0.31,0.1c0.11-0.01,0.22-0.09,0.23-0.2
			c0-0.02,0-0.05,0.02-0.06c0.02-0.01,0.05,0,0.07,0.01c0.08,0.05,0.16,0.1,0.25,0.13c0.09,0.02,0.2,0.01,0.26-0.06
			c0.05-0.07,0.05-0.16,0.02-0.24c-0.04-0.08-0.1-0.14-0.17-0.19c-0.02-0.01-0.03-0.02-0.05-0.03c0.02,0.04,0.03,0.08,0.02,0.12
			c-0.01,0.1-0.12,0.17-0.23,0.18c-0.11,0.01-0.21-0.03-0.31-0.07c-0.13-0.05-0.26-0.11-0.4-0.16c0.05,0.03,0.1,0.06,0.14,0.11
			c0.03,0.03,0.05,0.06,0.05,0.1c0.01,0.07-0.05,0.13-0.12,0.15c-0.07,0.02-0.14,0-0.2-0.02c-0.16-0.05-0.32-0.11-0.46-0.2
			c0.05,0.06,0.11,0.13,0.12,0.21C46.69,11.51,46.64,11.61,46.56,11.62z"/>
		<path class="st4" d="M41.38,9.26c0.07,0.06,0.14,0.11,0.22,0.15c0.06,0.03,0.13,0.05,0.2,0.06c0.05,0.01,0.1,0.01,0.14-0.01
			c0.01-0.01,0.02-0.01,0.03-0.02c0.07-0.07,0.01-0.19-0.05-0.27c0.15,0.13,0.33,0.23,0.53,0.28c0.08,0.02,0.19,0.02,0.24-0.05
			c0.06-0.08,0.01-0.18-0.04-0.26c0.16,0.19,0.41,0.3,0.66,0.3c0.24,0,0.23-0.25,0.18-0.42c0,0.01,0.06,0.02,0.07,0.02
			c0.03,0.01,0.05,0.02,0.08,0.02C43.83,9.14,44,9.2,44.18,9.29c0.16,0.08,0.31,0.18,0.44,0.31c0.03,0.03,0.06,0.06,0.08,0.09
			c0.03,0.04,0.06,0.08,0.06,0.12c0,0.05-0.05,0.09-0.09,0.07c0.28,0.11,0.53,0.27,0.75,0.47c0.05,0.05,0.11,0.11,0.13,0.18
			c0.02,0.07,0.01,0.16-0.05,0.2c0.09,0.06,0.2,0.1,0.31,0.1c0.04,0,0.08,0,0.11-0.03c0.06-0.05,0.03-0.16-0.02-0.23
			c-0.21-0.34-0.55-0.59-0.93-0.71c0.06-0.01,0.08-0.08,0.07-0.13C45.04,9.69,45,9.64,44.95,9.6c-0.26-0.25-0.6-0.4-0.94-0.52
			C43.68,8.97,43.33,8.88,43,8.72c0.08,0.05,0.17,0.11,0.23,0.18c0.06,0.07,0.13,0.21,0.07,0.3c-0.06,0.07-0.16,0.05-0.23,0.02
			c-0.12-0.05-0.24-0.11-0.36-0.17c-0.12-0.06-0.23-0.09-0.33-0.18c0.01,0.02,0.01,0.04,0.02,0.06c0.01,0.03,0,0.06-0.01,0.08
			c-0.09,0.15-0.34-0.02-0.46-0.05C41.87,8.95,41.81,8.95,41.78,9c-0.03,0.04-0.01,0.1-0.02,0.15c-0.02,0.08-0.1,0.13-0.18,0.13
			c-0.05,0-0.1-0.01-0.15-0.03c-0.01,0-0.02-0.01-0.03-0.01c-0.01,0-0.03-0.02-0.04-0.01C41.34,9.22,41.38,9.26,41.38,9.26z"/>
		<path class="st4" d="M46.45,13.61c0.05-0.02,0.09-0.05,0.14-0.06c0.07,0,0.12,0.04,0.18,0.08c0.24,0.17,0.56,0.23,0.85,0.18
			c0.07-0.01,0.15-0.04,0.19-0.11c0.08-0.16-0.16-0.29-0.23-0.46c0.17,0.07,0.35,0.13,0.54,0.17c0.11,0.02,0.22,0.04,0.32-0.01
			c0.1-0.05,0.16-0.18,0.1-0.26c0.15,0.1,0.32,0.21,0.51,0.21c0.19-0.01,0.38-0.19,0.31-0.36c0.01,0.02,0.11,0.05,0.13,0.06
			c0.05,0.02,0.1,0.04,0.15,0.05c0.04,0.01,0.09,0.02,0.13,0.03c0.07,0.01,0.15,0.02,0.22,0.02c0.03,0,0.07,0,0.1-0.02
			c0.08-0.05,0.05-0.17,0-0.25c-0.09-0.15-0.21-0.27-0.33-0.39c0.08,0.09,0.2,0.26,0.1,0.34c-0.03,0.03-0.07,0.03-0.11,0.03
			c-0.21,0.01-0.41-0.04-0.59-0.14c0.04,0.07,0.03,0.18-0.04,0.23c-0.1,0.07-0.25,0.05-0.37,0.01c-0.3-0.09-0.59-0.22-0.85-0.39
			c0.16,0.1,0.31,0.23,0.43,0.38c0.03,0.04,0.07,0.09,0.06,0.14c-0.01,0.13-0.18,0.15-0.31,0.13c-0.31-0.05-0.62-0.14-0.91-0.28
			c0.18,0.1,0.33,0.24,0.44,0.4c0.02,0.04,0.05,0.08,0.04,0.12c-0.02,0.1-0.15,0.11-0.25,0.09c-0.33-0.06-0.65-0.17-0.94-0.32
			c0.03,0.18-0.14,0.36-0.32,0.34C46.23,13.64,46.35,13.65,46.45,13.61z"/>
		<path class="st4" d="M49.99,14.6c0.06,0.05,0.13,0.09,0.21,0.09c0.02,0,0.04,0,0.07,0c0.02,0,0.04,0,0.06-0.01
			c0.04-0.02,0.07-0.06,0.09-0.1c0.01-0.03,0.01-0.07,0.01-0.11c0-0.02-0.01-0.04-0.01-0.05c0-0.01-0.01-0.03-0.01-0.04
			c0.01,0,0.02,0.02,0.03,0.02c0.05,0.04,0.09,0.08,0.15,0.11c0.07,0.04,0.15,0.08,0.22,0.11c0.05,0.02,0.1,0.04,0.16,0.05
			c0.04,0.01,0.08,0.01,0.11,0.01c0.03,0,0.06-0.03,0.08-0.06c0.02-0.03,0.03-0.06,0.03-0.1c0.01-0.08-0.01-0.16-0.03-0.23
			c0.02,0.01,0.05,0.02,0.07,0.03c0.02,0.01,0.05,0.03,0.07,0.04c0.09,0.05,0.19,0.1,0.3,0.11c0.11,0.01,0.23-0.04,0.26-0.14
			c0.04-0.11-0.04-0.23-0.13-0.32c-0.2-0.22-0.42-0.41-0.67-0.57c0.23,0.21,0.44,0.44,0.6,0.7c0.04,0.06,0.06,0.15,0.01,0.18
			c-0.03,0.02-0.06,0.01-0.09,0.01c-0.2-0.04-0.4-0.12-0.57-0.24c0.02,0.02,0.04,0.04,0.05,0.06c0.02,0.02,0.02,0.04,0.04,0.07
			c0,0.01,0.01,0.02,0.01,0.02c0.01,0.03,0.01,0.06,0.01,0.09c0,0.03-0.01,0.06-0.03,0.08c-0.02,0.02-0.04,0.02-0.06,0.02
			c-0.03,0.01-0.05,0.01-0.08,0.01c-0.05,0-0.11,0-0.16,0c-0.08-0.01-0.16-0.03-0.23-0.06c-0.04-0.02-0.07-0.03-0.11-0.05
			c-0.02-0.01-0.03-0.02-0.05-0.03c-0.01-0.01-0.03-0.03-0.05-0.03c0,0.01,0.02,0.03,0.02,0.04c0.02,0.04,0.03,0.09,0.02,0.13
			c-0.01,0.04-0.11,0.02-0.13,0c-0.24-0.1-0.46-0.22-0.67-0.37C49.65,14.28,49.8,14.46,49.99,14.6z"/>
		<path class="st4" d="M37.07,19.24c-0.57-0.08-0.75-0.68-0.75-0.68l-0.14,0.23C36.56,19.33,37.07,19.24,37.07,19.24z"/>
		<path class="st4" d="M35.91,10.14c-0.1,0-0.18,0.08-0.18,0.18c0,0.1,0.08,0.18,0.18,0.18c0.1,0,0.18-0.08,0.18-0.18
			C36.08,10.22,36,10.14,35.91,10.14z M35.91,10.39c-0.04,0-0.08-0.04-0.08-0.08c0-0.04,0.03-0.08,0.08-0.08s0.08,0.04,0.08,0.08
			C35.98,10.36,35.95,10.39,35.91,10.39z"/>
		<path class="st4" d="M56.53,21.11c-0.06-0.09-0.16-0.14-0.26-0.13l-2.4,0.52l-0.26,1.29l-0.63,0.41
			c-0.01-1.11-0.06-2.27-0.15-3.47l1.27,0.28l1.42-1.96c0.07-0.1,0.07-0.22,0.01-0.32c-0.06-0.09-0.16-0.14-0.26-0.13l-2.4,0.52
			l-0.26,1.29l-5.74,3.76c-0.03-0.49-0.06-0.99-0.11-1.51c0-0.02,0-0.03,0-0.04c0.14,0.02,0.27,0.03,0.4,0.03
			c0.32,0,0.59-0.06,0.83-0.22c0.8-0.51,1.05-2.06,1.09-2.37l0-0.04l-0.08-0.05c-0.15-0.1-0.51-0.39-0.62-0.8
			c0.13,0.01,0.26,0.04,0.38,0.09c0.11,0.04,0.23,0.1,0.35,0.16c0.33,0.16,0.72,0.34,1.19,0.34c0.15,0,0.32-0.02,0.49-0.07
			c0.75-0.25,1.05-0.63,1.07-0.65l0.08-0.11l-0.94-0.08l0.3-0.87l-0.19,0.14c0,0-0.44,0.33-0.65,0.4l-0.04,0.01
			c-0.18,0.06-0.38,0.12-0.96-0.11c-0.35-0.15-0.66-0.2-0.93-0.17c-0.33,0.04-0.57,0.25-0.78,0.43c-0.2,0.18-0.46,0.4-0.54,0.68
			l-0.01,0.04c-0.01,0.05-0.02,0.09-0.03,0.14l0,0.02l0,0c-0.01,0.09-0.01,0.18,0,0.27c0.02,0.13,0.05,0.25,0.1,0.37
			c0.04,0.09,0.09,0.18,0.14,0.27c0,0,0,0,0,0c-0.58,0-1.38-0.11-2.45-0.44l0,0l0,0c-0.78-0.24-1.55-0.36-2.29-0.36h0
			c-1.05,0-1.95,0.24-2.67,0.57c0-0.02-0.01-0.05-0.01-0.07c-0.02-0.06-0.05-0.11-0.09-0.16c-0.09-0.14-0.17-0.28-0.19-0.45
			c-0.03-0.18,0.01-0.37,0.04-0.55c0.04-0.26,0.02-0.5-0.05-0.74c-0.04-0.14-0.11-0.26-0.2-0.37c-0.04-0.04-0.07-0.09-0.11-0.13
			c-0.02-0.02-0.03-0.04-0.05-0.06c0.09-0.14,0.14-0.29,0.14-0.44c0-0.01,0.02-0.04,0.03-0.06l0.01-0.02
			c0.01-0.02,0.03-0.04,0.04-0.06c0.02-0.03,0.05-0.06,0.07-0.1c0.05-0.09,0.07-0.19,0.06-0.3l0-0.17c0.03-0.02,0.05-0.03,0.07-0.05
			c0.08,0.18,0.23,0.29,0.42,0.3c0.18,0.01,0.39-0.09,0.54-0.24c0.03,0.05,0.08,0.09,0.14,0.11c0.16,0.06,0.31-0.04,0.36-0.07
			c0.13-0.09,0.27-0.19,0.37-0.33c0.06,0.02,0.11,0.02,0.15,0.01c0.18-0.03,0.29-0.21,0.35-0.35l0.01-0.03
			c0.03-0.07,0.04-0.08,0.06-0.09c0.14-0.07,0.2-0.2,0.24-0.31c0.02,0,0.04-0.01,0.05-0.02c0.06-0.03,0.1-0.02,0.15,0.02
			c0.08,0.07,0.19,0.07,0.28,0.03c0.08,0.08,0.17,0.11,0.28,0.09c0.07-0.01,0.13-0.04,0.18-0.09c0.02,0.02,0.05,0.04,0.09,0.05
			c0.06,0.02,0.1,0.07,0.16,0.15l0.02,0.03C43.76,14.96,43.9,14.99,44,15c0.08,0,0.18-0.03,0.29-0.13c0.15,0.1,0.28,0.1,0.36,0.08
			c0.09-0.02,0.21-0.09,0.3-0.29c0.07-0.16,0.12-0.32,0.13-0.47c0.09-0.01,0.17-0.04,0.23-0.11c0.02,0.02,0.04,0.04,0.06,0.05
			c0.03,0.03,0.06,0.05,0.08,0.07c0.17,0.11,0.34,0.22,0.52,0.3c0.06,0.03,0.13,0.06,0.21,0.07c0.07,0.01,0.13-0.01,0.17-0.02
			c0.02,0.01,0.05,0.03,0.08,0.06c0.5,0.35,0.81,0.52,1.03,0.39c0.03-0.02,0.06-0.04,0.09-0.09c0.29,0.21,0.6,0.41,0.95,0.54
			c0.07,0.03,0.15,0.03,0.22,0.01c0.06-0.02,0.1-0.05,0.13-0.08c0.08,0.05,0.16,0.11,0.24,0.17c0.27,0.19,0.54,0.39,0.86,0.51
			c0.18,0.09,0.31,0.05,0.38,0c0.1-0.06,0.14-0.16,0.17-0.27c0.17,0.14,0.34,0.29,0.62,0.37l0.02,0c0.14,0.03,0.24-0.01,0.3-0.07
			c0.2,0.16,0.41,0.32,0.66,0.44c0.12,0.06,0.26,0.04,0.36-0.04c0.05-0.04,0.08-0.09,0.1-0.13c0.2,0.09,0.39,0.18,0.56,0.31
			c0.08,0.06,0.29,0.21,0.52,0.07c0.05-0.03,0.09-0.08,0.12-0.15c0.11,0.09,0.22,0.18,0.33,0.25c0.1,0.08,0.41,0.29,0.63,0.17
			c0.05-0.03,0.12-0.08,0.14-0.2c0.07,0.04,0.13,0.09,0.21,0.13c0.11,0.06,0.22,0.13,0.34,0.21c0.24,0.16,0.49,0.33,0.79,0.4l0.02,0
			c0.02,0,0.03,0,0.05,0c0.07,0,0.13-0.02,0.18-0.06c0.07-0.06,0.1-0.15,0.09-0.26c-0.04-0.42-0.31-0.72-0.56-0.99
			c-0.63-0.7-1.37-1.32-2.09-1.92c-0.27-0.23-0.55-0.46-0.82-0.7c-1.83-1.59-3.72-3.04-5.78-4.42C45.47,8,43.63,7.34,41.82,7.25
			c-0.78-0.04-1.4,0.06-1.88,0.3c-1.12,0.58-0.76,1.79-0.5,2.67l0.02,0.07c0.16,0.48,0.17,0.82,0.06,1.01
			c-0.05,0.08-0.12,0.13-0.22,0.17c0-0.01-0.01-0.01-0.01-0.01l-0.02-0.02c-0.46-0.53-1.19-0.49-1.41-0.47
			c-0.08-0.05-0.17-0.11-0.21-0.15c0.02-0.33-0.05-0.64-0.21-0.89c-0.05-0.08-0.12-0.16-0.19-0.22c0,0-0.01,0-0.01-0.01
			c0,0,0-0.01,0-0.02c-0.01-0.12-0.06-0.23-0.15-0.31c-0.1-0.1-0.25-0.15-0.41-0.15c-0.14,0-0.27,0.05-0.37,0.09L36.3,9.33
			c-0.08,0.03-0.17,0.07-0.22,0.05c-0.01,0-0.03-0.01-0.04-0.02c0.1-0.57,0-1.1-0.29-1.44c-0.53-0.63-1.56-0.71-2.32-0.66
			C31.61,7.34,29.77,8,27.96,9.21c-2.07,1.38-3.96,2.83-5.78,4.42c-0.27,0.23-0.55,0.47-0.82,0.69c-0.72,0.6-1.46,1.23-2.1,1.93
			c-0.24,0.26-0.51,0.56-0.55,0.98c-0.02,0.17,0.08,0.25,0.12,0.28c0.04,0.03,0.1,0.04,0.15,0.04c0.14,0,0.33-0.08,0.56-0.23
			c0.13-0.09,0.27-0.17,0.4-0.25c0.11-0.07,0.22-0.13,0.33-0.2c0.04-0.03,0.11-0.02,0.13,0.03c0.04,0.06,0.09,0.1,0.12,0.12
			c0.2,0.1,0.46-0.04,0.86-0.35c0.04-0.03,0.1-0.03,0.13,0.01c0.02,0.03,0.05,0.06,0.08,0.07c0.22,0.13,0.43-0.02,0.51-0.08
			c0.15-0.11,0.31-0.19,0.48-0.27c0.04-0.02,0.08,0,0.11,0.03c0.02,0.02,0.04,0.04,0.06,0.06c0.1,0.08,0.24,0.09,0.35,0.04
			c0.23-0.1,0.42-0.25,0.6-0.39c0.02-0.02,0.04-0.03,0.06-0.05c0.07,0.06,0.16,0.09,0.3,0.07l0.02,0c0.22-0.06,0.37-0.17,0.51-0.28
			c0.05-0.04,0.12-0.02,0.14,0.03c0.03,0.06,0.07,0.11,0.13,0.15c0.07,0.05,0.2,0.08,0.37,0c0.33-0.13,0.6-0.33,0.87-0.52
			c0.08-0.06,0.16-0.11,0.24-0.17c0.03,0.03,0.07,0.06,0.13,0.08c0.07,0.02,0.15,0.02,0.22-0.01c0.33-0.12,0.62-0.3,0.89-0.49
			c0.04-0.02,0.08-0.02,0.12,0.01c0.04,0.03,0.08,0.05,0.13,0.07c0.21,0.05,0.5-0.12,0.94-0.42c0.04-0.03,0.07-0.05,0.09-0.06
			c0.04,0.01,0.1,0.03,0.17,0.02l0.03-0.01c0.23-0.06,0.42-0.18,0.6-0.3l0.1-0.06c0.02-0.01,0.05-0.04,0.08-0.07
			c0.01-0.01,0.04-0.03,0.06-0.05c0.05,0.05,0.11,0.09,0.17,0.1c0.04,0.01,0.06,0.04,0.06,0.08c0.04,0.26,0.15,0.57,0.37,0.66
			c0.07,0.03,0.2,0.06,0.36-0.03c0.03-0.02,0.07-0.01,0.1,0.01c0.09,0.07,0.18,0.09,0.25,0.09c0.1,0,0.24-0.04,0.38-0.22l0.02-0.03
			c0.06-0.08,0.1-0.13,0.16-0.15c0.03-0.01,0.06-0.03,0.09-0.05c0.05,0.05,0.12,0.08,0.18,0.09c0.1,0.02,0.2-0.02,0.28-0.09
			c0.09,0.04,0.2,0.04,0.28-0.03c0.05-0.04,0.08-0.05,0.15-0.02c0.02,0.01,0.04,0.01,0.05,0.02c0.04,0.11,0.1,0.24,0.24,0.31
			c0.02,0.01,0.03,0.02,0.06,0.09l0.01,0.03c0.06,0.14,0.17,0.32,0.35,0.35c0.05,0.01,0.11,0.01,0.17-0.02c0,0,0,0.01,0,0.01
			l0.02,0.1l0.09-0.06c0.14-0.09,0.27-0.24,0.36-0.44c0.04,0.22,0.13,0.42,0.25,0.6c-0.39,0.33-0.6,0.86-0.51,1.34l0.02,0.1
			l0.09-0.05c0.15-0.09,0.28-0.24,0.38-0.44c0.04,0.28,0.15,0.54,0.31,0.75c-0.39,0.41-0.48,0.89-0.35,1.35l0.03,0.1l0.08-0.06
			c0.13-0.1,0.25-0.26,0.33-0.45c0.02,0.14,0.06,0.27,0.11,0.39c0.11,0.26,0.09,0.32,0.31,0.48c-0.04,0.06-0.07,0.12-0.11,0.18
			c-0.7-0.3-1.54-0.51-2.53-0.51h0c-0.74,0-1.51,0.12-2.29,0.36l0,0l0,0c-1.07,0.34-1.87,0.45-2.45,0.44c0,0,0,0,0,0
			c0.06-0.09,0.1-0.18,0.14-0.27c0.05-0.12,0.09-0.25,0.1-0.37c0.01-0.09,0.01-0.18,0-0.27l0,0l0-0.02
			c-0.01-0.05-0.01-0.09-0.03-0.14l-0.01-0.04c-0.08-0.28-0.33-0.5-0.54-0.68c-0.21-0.18-0.44-0.39-0.78-0.43
			c-0.27-0.03-0.57,0.02-0.93,0.17c-0.58,0.23-0.78,0.17-0.96,0.11l-0.04-0.01c-0.21-0.08-0.65-0.4-0.65-0.4l-0.19-0.14l0.3,0.87
			l-0.94,0.08l0.08,0.11c0.01,0.02,0.31,0.39,1.07,0.65c0.17,0.05,0.34,0.07,0.49,0.07c0.47,0,0.86-0.19,1.19-0.34
			c0.12-0.06,0.24-0.12,0.35-0.16c0.12-0.05,0.25-0.07,0.38-0.09c-0.1,0.41-0.47,0.7-0.62,0.8l-0.08,0.05l0,0.04
			c0.04,0.3,0.29,1.85,1.09,2.37c0.24,0.15,0.51,0.22,0.83,0.22c0.12,0,0.25-0.01,0.38-0.03c-0.05,0.52-0.09,1.03-0.11,1.54
			l-5.74-3.75l-0.26-1.29c0,0-2.4-0.52-2.4-0.52c-0.1-0.01-0.2,0.04-0.26,0.13c-0.07,0.1-0.06,0.23,0.01,0.32l1.42,1.96l1.27-0.28
			c-0.09,1.2-0.14,2.36-0.15,3.47l-0.63-0.41l-0.26-1.29c0,0-2.4-0.52-2.4-0.52c-0.1-0.01-0.2,0.04-0.26,0.13
			c-0.06,0.1-0.06,0.23,0.01,0.32l1.42,1.96l1.23-0.27c-0.88,6.62,0.11,11.11,1.1,13.73c1.02,2.69,2.21,3.96,2.4,4.16
			c0.33,0.38,2.45,2.69,5.74,2.69c1.42,0,3.06-0.44,4.86-1.65c-0.56,1.84-2,4.01-2.02,4.03l-0.08,0.12l0.14,0
			c0.65-0.02,1.17,0.03,1.56,0.11l-0.24,0.99c-0.03,0.09-0.03,0.16-0.03,0.16c0,0.05,0.01,0.16,0.11,0.25
			c0.15,0.14,0.43,0.17,0.82,0.11c0.18-0.03,0.32-0.03,0.43-0.02l0.04,1.05c0,0.02,0,0.04,0,0.06c0,0.02,0.01,0.05,0.03,0.08
			c0.13,0.2,0.6,0.3,1.4,0.3c0.8,0,1.27-0.1,1.4-0.3c0.03-0.05,0.04-0.1,0.03-0.14l0.04-1.05c0.11-0.01,0.25-0.01,0.43,0.02
			c0.39,0.07,0.67,0.03,0.82-0.11c0.1-0.09,0.11-0.2,0.11-0.24c0-0.02,0-0.05,0-0.07c-0.01-0.06-0.03-0.12-0.04-0.18
			c-0.02-0.1-0.05-0.2-0.07-0.3c-0.03-0.12-0.06-0.24-0.09-0.36c-0.02-0.08-0.04-0.15-0.06-0.23c0-0.01,0-0.01,0-0.02
			c0.39-0.08,0.91-0.13,1.56-0.11l0.14,0l-0.08-0.12c-0.02-0.02-1.46-2.2-2.02-4.04c1.8,1.22,3.44,1.66,4.87,1.66
			c3.29,0,5.43-2.33,5.76-2.7c0.05-0.05,1.29-1.27,2.38-4.14c0.99-2.61,1.97-7.11,1.1-13.73l1.23,0.27l1.42-1.96
			C56.59,21.33,56.59,21.21,56.53,21.11z M53.19,18.44l1.85-0.4l-1.11,1.53l-0.93-0.2L53.19,18.44z M21.3,19.58l-1.11-1.53l1.85,0.4
			l0.19,0.93L21.3,19.58z M20.3,22.96l-1.11-1.53l1.85,0.4l0.19,0.93L20.3,22.96z M49.82,21.69l2.64-1.73
			c0.09,1.2,0.14,2.38,0.14,3.48l-3,1.97C49.72,24.29,49.79,23.07,49.82,21.69z M46.88,23.61l1.25-0.82
			c-0.06,1.38-0.17,2.63-0.35,3.8l-0.97,0.64C46.9,26.09,46.93,24.89,46.88,23.61z M46.77,27.73l1.56-1.02
			c-0.09,2.14-0.38,4.28-1.04,6.32c-0.34,1.04-0.78,2.06-1.31,3.03c-0.53,0.96-1.16,1.87-1.86,2.71c-0.37,0.44-0.75,0.86-1.15,1.27
			c-0.29-0.28-0.51-0.53-0.64-0.69C44.39,36.76,46.25,32.94,46.77,27.73z M39.94,39.26c-0.04-0.07-0.11-0.09-0.17-0.11l-0.03-0.01
			c-0.03-0.01-0.06-0.04-0.06-0.04c0-0.01,0.02-0.02,0.04-0.03c0.02-0.01,0.04-0.03,0.06-0.05c0.08-0.11,0.08-0.23,0-0.34
			c-0.11-0.15-0.34-0.24-0.5-0.18c-0.07,0.02-0.14,0.05-0.2,0.08c-0.03,0.02-0.06,0.03-0.09,0.05c-0.04,0.02-0.15,0.06-0.22,0.01
			c-0.02-0.02-0.04-0.04-0.07-0.07c-0.03-0.04-0.06-0.08-0.11-0.11c-0.07-0.04-0.15-0.05-0.21-0.05l-0.85-0.05
			c-0.11-0.01-0.18,0.02-0.23,0.12c-0.02,0.02-0.06,0.02-0.11,0.02c-0.05,0-0.1,0-0.15,0.01c-0.09,0.03-0.14,0.1-0.19,0.16
			c-0.03,0.04-0.05,0.07-0.09,0.1c-0.08,0.06-0.19,0.04-0.31,0.03c-0.06-0.01-0.11-0.02-0.17-0.02c-0.16-0.01-0.38,0.07-0.5,0.22
			c-0.07,0.09-0.09,0.18-0.06,0.29c0.01,0.02,0.02,0.04,0.03,0.06c0.01,0.01,0.02,0.02,0.02,0.04c0.02,0.04,0,0.1-0.04,0.14
			c-0.05,0.05-0.13,0.06-0.22,0.07c-0.1,0.01-0.21,0.02-0.3,0.11c-0.03,0.03-0.04,0.06-0.06,0.09c-0.01,0.03-0.03,0.05-0.04,0.06
			c-0.02,0.01-0.04,0.02-0.06,0.04c-0.02,0.01-0.05,0.02-0.07,0.04c-0.16,0.11-0.16,0.3-0.16,0.46c0,0.07,0,0.13-0.01,0.18
			c-1.34-1.28-2.71-3.08-3.79-5.42h1.1c0.02,0.05,0.05,0.1,0.07,0.15c0.16,0.34,0.32,0.69,0.62,0.93c0.08,0.09,0.14,0.19,0.2,0.3
			c0.06,0.1,0.12,0.21,0.2,0.31c0.12,0.14,0.26,0.24,0.4,0.33c0.4,0.27,0.85,0.58,1.36,0.68c0.12,0.03,0.25,0.04,0.37,0.05
			c0.15,0.02,0.3,0.03,0.44,0.07c0.1,0.03,0.2,0.06,0.3,0.1c0.08,0.03,0.17,0.06,0.25,0.09c0.32,0.09,0.65,0.11,0.97,0.12
			c0.54,0.02,1.1,0.04,1.65-0.1l0.08-0.02c0.27-0.07,0.54-0.15,0.73,0c0.07,0.06,0.13,0.15,0.18,0.24c0.1,0.16,0.2,0.32,0.4,0.33
			c0.05,0,0.06,0.01,0.06,0.01c0.01,0.01,0.01,0.06,0.01,0.1c0,0.03,0,0.06,0,0.09c0.02,0.1,0.09,0.17,0.2,0.2
			c0.03,0.01,0.06,0.01,0.09,0.01c0.09,0,0.18-0.04,0.24-0.11c0.13-0.17,0.06-0.42-0.08-0.55l-0.01-0.01
			c-0.02-0.01-0.03-0.03-0.03-0.04c0-0.01,0-0.03,0.03-0.08c0.21-0.29,0.55-0.49,0.9-0.52c0.03,0,0.06,0,0.08-0.01
			c0.13-0.01,0.25-0.02,0.37-0.09l0.11-0.07l-0.11-0.06c-0.08-0.04-0.15-0.09-0.21-0.14c0.27-0.15,0.55-0.2,0.87,0.15
			c-0.82,1.25-1.7,2.26-2.57,3.07c-0.02-0.03-0.03-0.07-0.04-0.12l-0.01-0.02c-0.01-0.03-0.03-0.06-0.05-0.08
			c-0.01-0.02-0.02-0.03-0.03-0.05c-0.01-0.02-0.01-0.05-0.01-0.08c0-0.03,0-0.06-0.01-0.08c-0.03-0.14-0.15-0.26-0.35-0.33
			c-0.05-0.02-0.07-0.03-0.08-0.04c0.01-0.06,0.06-0.13,0.1-0.19C39.92,39.58,40.01,39.44,39.94,39.26z M35.61,21.48
			c-2.31,0.81-4.14,0.25-5.21-0.33c0.22-0.06,0.46-0.13,0.7-0.19c2.11-0.4,3.68-0.06,4.52,0.22C35.61,21.28,35.6,21.38,35.61,21.48z
			 M36.42,21.57c0.13,0.18,0.29,0.32,0.47,0.42l0.09,0.05l0.02-0.1c0.03-0.18,0.01-0.4-0.06-0.62c0.15-0.08,0.31-0.16,0.46-0.26
			c0.03,0.08,0.07,0.16,0.11,0.23l0.05,0.09l0.07-0.08c0.06-0.08,0.11-0.17,0.15-0.27c1.51,0.91,2.89,1.22,4.07,1.22
			c1.45,0,2.6-0.47,3.35-0.89c0.01-0.01,0.07-0.04,0.12-0.07c0.3,0.08,0.57,0.16,0.83,0.22c0,0.05,0.01,0.1,0.01,0.12
			c0.24,2.46,0.2,4.69-0.05,6.7H29.12c-0.26-2.04-0.31-4.31-0.06-6.82c0.26-0.06,0.55-0.14,0.85-0.22
			C31.12,22.01,33.51,22.85,36.42,21.57z M35,16.4L35,16.4c-0.01-0.02-0.01-0.05-0.02-0.07c0.14,0.13,0.31,0.23,0.49,0.27l0.1,0.03
			l-0.01-0.1c-0.02-0.22-0.13-0.46-0.31-0.67l0,0c-0.12-0.13-0.3-0.28-0.5-0.36c0.03-0.12,0.04-0.24,0.03-0.38l0.5,0.39l0.14,0.2
			l0.01,0.41c0.02,0.03,0.04,0.07,0.07,0.1c0.01,0.02,0.03,0.04,0.04,0.06l0.01,0.02c0.01,0.02,0.03,0.04,0.03,0.06
			c0,0.15,0.05,0.3,0.14,0.44c-0.02,0.02-0.03,0.04-0.05,0.06c-0.04,0.05-0.07,0.09-0.11,0.13c-0.09,0.1-0.15,0.2-0.19,0.33
			c-0.14-0.1-0.3-0.22-0.36-0.25C35.05,16.85,35.04,16.63,35,16.4z M35.19,10.86c0,0.1-0.02,0.19-0.04,0.29
			c-0.03,0.16-0.08,0.32-0.16,0.46c-0.12,0.23-0.29,0.42-0.46,0.52c0-0.36,0.14-0.73,0.38-1.01C35,11.01,35.09,10.93,35.19,10.86z
			 M35.08,10.59c-0.29-0.04-0.53,0.04-0.73,0.24c0,0,0,0-0.01,0.01c-0.01-0.08,0.02-0.14,0.04-0.2c0.03-0.05,0.05-0.1,0.08-0.13
			c0.06-0.09,0.15-0.16,0.26-0.22c0.06-0.03,0.12-0.05,0.19-0.05c0.06,0,0.11,0.01,0.16,0.02c0.06,0.01,0.09,0.06,0.11,0.13
			c0.01,0.06,0.01,0.09-0.03,0.2c0,0-0.01,0-0.01,0C35.12,10.59,35.1,10.6,35.08,10.59z M34.64,13.23L34.64,13.23
			c0-0.06,0-0.12,0-0.18c0.13,0.17,0.3,0.31,0.49,0.39l0.09,0.04l0.01-0.1c0.01-0.22-0.06-0.47-0.21-0.71l0,0
			c-0.1-0.14-0.25-0.31-0.42-0.41c0.19-0.12,0.38-0.32,0.51-0.58l0,0c0.07-0.15,0.13-0.3,0.16-0.46c0.05,0.17,0.13,0.34,0.2,0.46
			c0.14,0.23,0.33,0.41,0.56,0.54c-0.24,0.43-0.27,0.96-0.05,1.37l0.05,0.09l0.07-0.08c0.13-0.14,0.21-0.36,0.25-0.61
			c0.13,0.28,0.33,0.51,0.57,0.66c-0.08,0.07-0.16,0.16-0.23,0.25c-0.21,0.28-0.31,0.66-0.26,1.01l0.01,0.1l0.09-0.05
			c0.18-0.09,0.34-0.28,0.45-0.53c0.05,0.3,0.18,0.58,0.37,0.81c-0.18,0.12-0.34,0.28-0.46,0.46c-0.13,0.21-0.2,0.46-0.2,0.71l0,0.1
			l0.1-0.03c0.16-0.06,0.33-0.19,0.47-0.38c-0.02,0.32,0.05,0.63,0.19,0.89c-0.09,0.04-0.18,0.09-0.28,0.15
			c-0.29,0.2-0.49,0.53-0.55,0.87l-0.02,0.1l0.1-0.01c0.18-0.03,0.37-0.13,0.54-0.29c-0.08,0.37-0.04,0.76,0.12,1.08
			c-0.11,0.12-0.2,0.27-0.29,0.44c-0.15,0.31-0.21,0.68-0.16,1.02c-0.21-0.19-0.48-0.4-0.81-0.62c-0.02-0.09-0.05-0.17-0.08-0.23
			l0,0c-0.02-0.03-0.04-0.07-0.06-0.1c0.13,0.05,0.26,0.08,0.4,0.08c0.04,0,0.07,0,0.1-0.01l0.1-0.01l-0.04-0.09
			c-0.08-0.2-0.26-0.4-0.49-0.54l0,0c-0.01-0.01-0.03-0.02-0.05-0.02c-0.01-0.15-0.05-0.31-0.23-0.33c-0.06-0.01-0.13,0-0.19,0.02
			c-0.01,0-0.03,0-0.04,0c-0.01-0.01-0.01-0.02-0.02-0.03c-0.04-0.12-0.07-0.25-0.08-0.39c0.1,0.07,0.21,0.13,0.32,0.17l0.1,0.03
			l0-0.1c0-0.22-0.1-0.47-0.26-0.69l0,0c-0.01-0.02-0.05-0.05-0.09-0.08c0.01-0.04,0.03-0.08,0.05-0.11c0.09-0.15,0.19-0.3,0.3-0.43
			c0.02-0.02,0.04-0.04,0.07-0.04c-0.12-0.07-0.19-0.15-0.22-0.29c-0.02-0.1-0.02-0.22,0-0.32c0-0.02,0.01-0.04,0.03-0.04
			c-0.08-0.02-0.13-0.09-0.15-0.17c-0.02-0.07-0.03-0.17-0.02-0.24l0.01-0.04l-0.3-0.46c0,0-0.31-0.01-0.48-0.27
			c0-0.01-0.01-0.01-0.01-0.02c-0.01-0.05-0.01-0.1-0.02-0.15c0.12,0.1,0.26,0.18,0.4,0.23l0.1,0.03l0-0.1
			c-0.01-0.22-0.11-0.47-0.28-0.68l0,0c-0.14-0.17-0.32-0.31-0.51-0.4C34.56,13.7,34.62,13.48,34.64,13.23z M34.51,12.37
			c0.16,0.09,0.3,0.25,0.39,0.38c0.1,0.16,0.17,0.35,0.18,0.51c-0.15-0.08-0.27-0.2-0.37-0.35c-0.06-0.09-0.1-0.19-0.14-0.29
			c-0.01-0.05-0.03-0.1-0.04-0.15C34.53,12.43,34.52,12.4,34.51,12.37z M35.36,10.87c0.2,0.13,0.39,0.31,0.52,0.52
			c0.13,0.23,0.21,0.48,0.22,0.69c-0.2-0.11-0.37-0.28-0.49-0.48C35.47,11.37,35.38,11.09,35.36,10.87z M36.14,12.33
			c0.06,0.16,0.09,0.37,0.08,0.57c-0.02,0.2-0.07,0.38-0.15,0.51C35.94,13.08,35.97,12.67,36.14,12.33z M36.32,12.29
			c0.2,0.14,0.38,0.33,0.5,0.54c0.11,0.19,0.17,0.4,0.19,0.59v0.08C36.61,13.3,36.36,12.8,36.32,12.29z M36.99,13.78
			c0,0.02,0,0.05,0,0.07c0,0.03-0.01,0.07-0.01,0.11c-0.02,0.14-0.05,0.27-0.1,0.39c-0.08,0.18-0.19,0.32-0.3,0.42
			c-0.01-0.28,0.08-0.56,0.24-0.79C36.87,13.92,36.93,13.84,36.99,13.78z M37.75,16.23c0,0.26-0.05,0.5-0.14,0.69l-0.02-0.01
			c-0.16-0.31-0.21-0.68-0.14-1.04c0.03-0.12,0.06-0.27,0.11-0.38C37.67,15.71,37.74,15.98,37.75,16.23z M37.67,15.15
			c0.15,0.11,0.28,0.25,0.37,0.41c0.09,0.17,0.15,0.36,0.15,0.52c-0.21-0.14-0.38-0.37-0.46-0.65
			C37.71,15.34,37.68,15.24,37.67,15.15z M37.29,20.18c-0.05,0.11-0.12,0.21-0.19,0.29c-0.08-0.35-0.04-0.75,0.12-1.08
			c0.06-0.12,0.13-0.23,0.2-0.33c0.02,0.09,0.03,0.19,0.03,0.29c0,0.09,0,0.18-0.01,0.27c-0.05,0.12-0.09,0.24-0.13,0.38
			C37.31,20.06,37.3,20.12,37.29,20.18z M37.3,20.68c-0.01,0-0.01,0.01-0.02,0.01c-0.03-0.03-0.06-0.06-0.09-0.1
			c0.03-0.03,0.06-0.07,0.09-0.11C37.28,20.55,37.29,20.61,37.3,20.68z M36.21,20.53c0.2,0.15,0.37,0.35,0.48,0.57
			c0.12,0.24,0.18,0.49,0.17,0.71c-0.28-0.19-0.5-0.51-0.59-0.87C36.25,20.81,36.22,20.66,36.21,20.53z M36.23,21.23
			c-0.01,0.01-0.03,0.01-0.04,0.02c-0.02-0.01-0.05-0.02-0.08-0.04c0.01-0.03,0.03-0.07,0.04-0.1l0,0c0.01-0.02,0.01-0.04,0.01-0.06
			C36.18,21.12,36.21,21.18,36.23,21.23z M36.78,20.96c-0.14-0.24-0.34-0.46-0.56-0.6c0-0.09-0.02-0.25-0.05-0.42
			c0.34,0.23,0.62,0.47,0.82,0.66c0,0.01,0.01,0.02,0.01,0.03l0.03,0.1l0.05-0.04c0.02,0.02,0.04,0.04,0.06,0.06
			c-0.01,0-0.01,0.01-0.02,0.01c-0.08,0.04-0.16,0.09-0.23,0.13C36.85,20.91,36.82,20.93,36.78,20.96z M37.43,20.23
			c0.05-0.11,0.09-0.23,0.12-0.35l0,0c0.01-0.07,0.03-0.14,0.03-0.2c0.04,0.08,0.07,0.17,0.09,0.27c0.04,0.15,0.07,0.32,0.07,0.49
			c-0.01,0.26-0.07,0.52-0.17,0.69C37.45,20.85,37.4,20.53,37.43,20.23z M37.59,18.99c0.13,0.13,0.23,0.28,0.3,0.45
			c0.07,0.18,0.1,0.35,0.09,0.5C37.73,19.72,37.59,19.36,37.59,18.99z M37.47,18.73c-0.13-0.33-0.13-0.73-0.01-1.09
			c0.04-0.13,0.1-0.25,0.16-0.36c0.03,0.09,0.05,0.18,0.07,0.28c0.03,0.16,0.04,0.33,0.02,0.49C37.67,18.32,37.59,18.57,37.47,18.73
			z M37.23,17.64c-0.13,0.14-0.28,0.24-0.42,0.29c0.07-0.27,0.24-0.51,0.47-0.67c0.08-0.05,0.15-0.1,0.23-0.13
			c-0.02,0.05-0.04,0.1-0.06,0.14l-0.02,0.04C37.38,17.43,37.31,17.54,37.23,17.64z M37.21,13.93c0.03,0.04,0.07,0.09,0.11,0.12
			c0.07,0.13,0.13,0.26,0.16,0.4c0.04,0.17,0.05,0.34,0.05,0.5L37.53,15c0,0.02,0,0.03,0,0.05c0,0.03-0.01,0.07-0.02,0.1l-0.01,0.01
			c-0.23-0.26-0.36-0.61-0.37-0.98c0-0.07,0-0.15,0-0.23c0-0.04,0.01-0.08,0.01-0.11c0-0.01,0-0.01,0-0.02
			C37.16,13.85,37.19,13.89,37.21,13.93z M37.18,13.6c0.17,0.04,0.34,0.12,0.48,0.23c0.15,0.12,0.27,0.28,0.33,0.42
			c-0.19-0.04-0.38-0.14-0.54-0.28C37.37,13.83,37.28,13.71,37.18,13.6z M37.41,15.38c-0.02,0.17-0.09,0.37-0.19,0.55
			c-0.1,0.16-0.23,0.29-0.36,0.37c0.02-0.18,0.08-0.36,0.17-0.51C37.13,15.62,37.26,15.48,37.41,15.38z M35.98,18.96
			c0.16,0.1,0.3,0.23,0.38,0.37c-0.17,0-0.33-0.05-0.48-0.14c-0.04-0.02-0.08-0.05-0.11-0.08c-0.09-0.05-0.23-0.22-0.22-0.21
			c-0.03-0.03-0.06-0.07-0.08-0.1C35.65,18.81,35.83,18.87,35.98,18.96z M35.59,18.69c0-0.01,0.01-0.01,0.01-0.02
			c0.03-0.04,0.06-0.07,0.1-0.08c0.02-0.01,0.04-0.01,0.06-0.01c0.02,0,0.04,0,0.05,0.01c0.01,0.01,0.02,0.02,0.03,0.03
			c0.01,0.01,0.01,0.03,0.02,0.05c0,0.02,0.01,0.04,0.01,0.06c0,0.01,0,0.02,0,0.03C35.78,18.74,35.68,18.71,35.59,18.69z
			 M34.87,14.37c0.12,0.15,0.2,0.33,0.23,0.49c-0.16-0.07-0.31-0.19-0.43-0.35c-0.05-0.14-0.12-0.27-0.2-0.39
			c-0.01-0.03-0.02-0.06-0.03-0.09C34.6,14.11,34.75,14.23,34.87,14.37z M34.71,15.63c0.17,0.07,0.33,0.21,0.43,0.32
			c0.13,0.15,0.22,0.32,0.25,0.48c-0.16-0.06-0.3-0.16-0.41-0.29C34.87,15.99,34.77,15.82,34.71,15.63
			C34.71,15.63,34.71,15.63,34.71,15.63z M35.48,17.57c0.12,0.16,0.19,0.33,0.22,0.49c-0.23-0.1-0.43-0.31-0.54-0.56
			c-0.04-0.08-0.08-0.18-0.1-0.27C35.22,17.31,35.37,17.43,35.48,17.57z M35.45,19.02c0.06,0.07,0.13,0.13,0.21,0.19
			c0.1,0.11,0.18,0.23,0.25,0.35c0.12,0.24,0.18,0.49,0.17,0.71c-0.28-0.19-0.5-0.51-0.59-0.87c-0.01-0.03-0.02-0.07-0.02-0.11
			c-0.01-0.08-0.02-0.16-0.04-0.24c0-0.02,0-0.04,0-0.06C35.44,19,35.45,19.01,35.45,19.02z M36.01,21.07
			c-0.06,0.18-0.15,0.34-0.25,0.45c-0.02-0.17-0.01-0.34,0.04-0.51c0.06-0.19,0.15-0.36,0.26-0.48
			C36.08,20.71,36.06,20.9,36.01,21.07z M39.24,21.33c0.65-0.28,2.41-0.85,4.92-0.37c0.22,0.06,0.44,0.12,0.64,0.18
			C43.48,21.83,41.57,22.29,39.24,21.33z M46.07,28.71c-0.32,2.31-0.91,4.32-1.66,6.04h-6.6v-0.18l0.44-0.95l-0.42-1.28
			c0.22,0.03,0.45,0.1,0.68,0.23c0.05,0.19,0.26,0.97,0.62,1.09c0.13,0.04,0.28,0.06,0.44,0.06c0.31,0,0.62-0.07,0.75-0.15
			l0.09-0.05l-0.08-0.06c0,0-0.27-0.19-0.52-0.45c-0.34-0.35-0.33-1.02-0.32-1.36c0-0.03,0.01-0.07,0.01-0.12
			c0.05-0.5,0.19-2.01-1.08-2.26c-0.27-0.05-0.55-0.05-0.83,0c-0.24,0.04-0.48,0.12-0.7,0.23c-0.18,0.09-0.36,0.2-0.52,0.32
			c-0.09,0.07-0.2,0.14-0.29,0.23c-0.1,0.11-0.12,0.21-0.14,0.36c-0.02,0.13-0.03,0.25-0.03,0.38c0,0.07,0,0.16,0.04,0.22
			c0.09,0.13,0.18,0.09,0.25,0.07c0.01-0.01,0.03-0.01,0.04-0.01c0.02,0.19-0.06,0.91-0.17,1.56l-0.02,0.15l0.13-0.08
			c0.01,0,0.44-0.26,1.02-0.33l-0.43,1.28l0.46,0.95v0.18h-6.39c-0.75-1.72-1.35-3.73-1.68-6.04H46.07z M41.82,37.51
			c0.06,0.06,0.12,0.11,0.19,0.15c-0.05,0.01-0.11,0.01-0.17,0.02c-0.03,0-0.06,0-0.09,0.01c-0.4,0.04-0.78,0.26-1.01,0.58
			c-0.02,0.03-0.09,0.12-0.05,0.22c0.02,0.04,0.05,0.07,0.08,0.09l0.01,0.01c0.1,0.08,0.14,0.25,0.06,0.35
			c-0.04,0.05-0.12,0.06-0.17,0.04c-0.02-0.01-0.08-0.03-0.09-0.08c0-0.03,0-0.05,0-0.08c0-0.08,0-0.15-0.06-0.21
			c-0.04-0.04-0.1-0.05-0.16-0.05c-0.12-0.01-0.2-0.13-0.28-0.27c-0.06-0.1-0.13-0.2-0.22-0.27c-0.25-0.19-0.57-0.11-0.86-0.03
			l-0.08,0.02c-0.52,0.14-1.07,0.12-1.6,0.1c-0.31-0.01-0.64-0.02-0.94-0.11c-0.08-0.02-0.16-0.05-0.24-0.08
			c-0.1-0.04-0.21-0.08-0.32-0.11c-0.15-0.04-0.31-0.06-0.46-0.07c-0.12-0.01-0.24-0.03-0.36-0.05c-0.48-0.1-0.92-0.4-1.31-0.66
			c-0.13-0.09-0.27-0.18-0.37-0.31c-0.07-0.08-0.12-0.18-0.18-0.28c-0.06-0.11-0.13-0.23-0.23-0.34c-0.28-0.22-0.43-0.54-0.59-0.88
			c-0.01-0.03-0.03-0.06-0.04-0.09h11.95c-0.4,0.86-0.83,1.64-1.29,2.36c-0.42-0.44-0.83-0.28-1.11-0.1l-0.08,0.05L41.82,37.51z
			 M36.94,33.62l0.43-1.29c0.1-0.01,0.2-0.01,0.3,0l0.43,1.29l-0.43,0.91l0,0.23h-0.28v-0.21L36.94,33.62z M38.87,30.67
			c-0.15-0.34-0.44-0.64-0.81-0.7c-0.3-0.05-0.61,0.07-0.88,0.22c-0.22,0.13-0.43,0.27-0.63,0.44c-0.09,0.08-0.17,0.16-0.27,0.23
			c-0.04,0.02-0.1,0.08-0.15,0.08c-0.05,0-0.07-0.06-0.07-0.1c0-0.16,0.01-0.31,0.03-0.47c0.01-0.05,0.02-0.09,0.04-0.13
			c0.03-0.06,0.07-0.1,0.12-0.14c0.5-0.43,1.14-0.72,1.8-0.72c0.26,0,0.54,0.05,0.76,0.19c0.31,0.21,0.49,0.58,0.55,0.95
			c0.06,0.37,0.02,0.75,0.01,1.12c-0.02,0.37-0.01,0.76,0.13,1.11c0.13,0.31,0.36,0.58,0.66,0.75c-0.25,0.09-0.53,0.12-0.79,0.09
			c-0.09-0.01-0.18-0.03-0.25-0.08c-0.08-0.06-0.14-0.14-0.19-0.23c-0.11-0.2-0.19-0.42-0.25-0.65c-0.01-0.04-0.02-0.09-0.05-0.13
			c-0.02-0.02-0.05-0.04-0.08-0.06c-0.35-0.19-0.75-0.27-1.15-0.25c-0.4,0.02-0.79,0.13-1.15,0.3c0.09-0.47,0.14-0.95,0.15-1.43
			c0-0.03,0-0.05,0.01-0.08c0-0.01,0-0.01,0.01-0.02c0.01-0.03,0.03-0.05,0.06-0.07c0.28-0.25,0.58-0.48,0.92-0.65
			c0.25-0.12,0.54-0.2,0.8-0.11c0.15,0.06,0.27,0.16,0.37,0.29c0.29,0.37,0.35,0.87,0.39,1.34c0.05,0,0.09,0,0.14-0.01
			C39.05,31.39,39.02,31.01,38.87,30.67z M47.85,17.79c0.2-0.18,0.41-0.36,0.7-0.39c0.24-0.03,0.52,0.02,0.85,0.16
			c0.63,0.25,0.85,0.18,1.06,0.11l0.04-0.01c0.14-0.05,0.35-0.19,0.51-0.29l-0.21,0.62l0.83,0.07c-0.14,0.12-0.42,0.34-0.89,0.49
			c-0.64,0.18-1.14-0.06-1.57-0.27c-0.13-0.06-0.25-0.12-0.36-0.16c-0.45-0.17-0.94-0.14-1.34,0.07
			C47.56,18.04,47.71,17.91,47.85,17.79z M47.35,18.43c0.25-0.18,0.56-0.27,0.87-0.26c0.09,0.45,0.44,0.76,0.63,0.9
			c-0.14,0.13-0.5,0.37-1.25,0.41C47.52,19.35,47.22,18.9,47.35,18.43z M42.69,18.81C42.69,18.81,42.69,18.81,42.69,18.81
			c0.73,0,1.48,0.12,2.24,0.36l0,0c2.48,0.76,3.59,0.36,3.96,0.06c-0.09,0.5-0.35,1.67-0.99,2.08c-0.59,0.39-1.52,0.13-2.8-0.23
			c-0.29-0.08-0.59-0.17-0.92-0.25c-2.72-0.52-4.58,0.18-5.13,0.43c-0.11-0.05-0.23-0.1-0.34-0.16c-0.02-0.01-0.04-0.03-0.07-0.04
			c-0.09-0.06-0.19-0.11-0.28-0.16c-0.08-0.04-0.16-0.09-0.23-0.13c-0.01,0-0.01-0.01-0.02-0.01
			C38.68,20.15,40.23,18.81,42.69,18.81z M39.83,19.06c0.01,0.02,0.03,0.05,0.04,0.07c0.02,0.03,0.04,0.07,0.04,0.1
			c0,0.08-0.1,0.11-0.17,0.09c-0.11-0.05-0.23-0.14-0.31-0.22c-0.11-0.1-0.38-0.48-0.15-0.59c0.13-0.06,0.25,0.08,0.32,0.17
			C39.69,18.8,39.76,18.93,39.83,19.06z M39.85,11.51c0.25-0.4,0.11-0.95-0.02-1.33l-0.02-0.07c-0.3-1.01-0.47-1.81,0.3-2.22
			c0.42-0.21,0.97-0.3,1.68-0.26c1.74,0.09,3.51,0.72,5.26,1.9c2.05,1.37,3.93,2.81,5.74,4.39c0.27,0.24,0.55,0.47,0.82,0.7
			c0.71,0.59,1.44,1.21,2.06,1.89c0.18,0.19,0.34,0.38,0.42,0.6c-0.16-0.07-0.32-0.17-0.48-0.28c-0.12-0.08-0.24-0.16-0.36-0.23
			c-0.23-0.14-0.36-0.22-0.56-0.42c-0.09-0.07-0.21-0.07-0.3,0c-0.09,0.08-0.1,0.2-0.03,0.3c0.04,0.06,0.07,0.1,0.08,0.13
			c-0.04-0.02-0.1-0.05-0.14-0.09l-0.01-0.01c-0.14-0.09-0.27-0.2-0.41-0.32c-0.11-0.09-0.22-0.19-0.33-0.26l-0.69-0.49l0.41,0.74
			c0.03,0.05,0.05,0.11,0.07,0.17c0,0,0,0-0.01,0c-0.23-0.17-0.48-0.28-0.72-0.39l-0.1-0.04c-0.08-0.04-0.18-0.03-0.26,0.02
			c-0.06,0.04-0.1,0.11-0.1,0.18c-0.18-0.1-0.34-0.23-0.51-0.36c-0.05-0.04-0.09-0.07-0.14-0.11l-0.17-0.13l-0.11,0.18
			c-0.01,0.02-0.02,0.04-0.03,0.06c0,0,0,0,0,0.01c-0.18-0.06-0.31-0.17-0.45-0.29c-0.07-0.06-0.14-0.12-0.22-0.18
			c-0.07-0.05-0.17-0.06-0.25-0.02c-0.08,0.04-0.13,0.12-0.14,0.22l0,0.02c0,0.05,0,0.13-0.01,0.19c-0.01,0-0.01,0-0.02-0.01
			c-0.28-0.11-0.52-0.28-0.78-0.47c-0.14-0.1-0.28-0.2-0.43-0.3l-0.17-0.1l-0.1,0.17c-0.02,0.03-0.03,0.05-0.03,0.07
			c-0.33-0.12-0.62-0.34-0.91-0.54l-0.07-0.05c-0.04-0.03-0.17-0.13-0.3-0.04c-0.04,0.03-0.1,0.08-0.1,0.2
			c-0.09-0.04-0.26-0.13-0.56-0.34c-0.05-0.03-0.09-0.06-0.1-0.07c-0.13-0.09-0.23-0.07-0.32-0.04c-0.01,0-0.01,0-0.02,0.01
			c-0.02,0-0.06-0.02-0.08-0.03c-0.16-0.08-0.32-0.17-0.47-0.27c-0.01-0.01-0.03-0.02-0.05-0.04c-0.1-0.09-0.24-0.2-0.4-0.17
			c-0.07,0.01-0.14,0.06-0.18,0.13c-0.09-0.04-0.17-0.03-0.24,0.01c-0.11,0.08-0.11,0.21-0.11,0.26c0.01,0.13-0.03,0.27-0.1,0.44
			c-0.02,0.05-0.04,0.07-0.04,0.07c0,0-0.03-0.01-0.08-0.05c0,0-0.01-0.01-0.01-0.01c-0.04-0.03-0.12-0.11-0.23-0.09
			c-0.05,0.01-0.12,0.04-0.17,0.12C44.02,14.59,44,14.6,44,14.61c-0.01,0-0.03-0.01-0.07-0.06l-0.02-0.03
			c-0.07-0.1-0.16-0.21-0.32-0.28c-0.01-0.01-0.02-0.03-0.03-0.04l-0.02-0.04c-0.05-0.07-0.13-0.11-0.21-0.11
			c-0.09,0.01-0.16,0.06-0.2,0.14l-0.01,0.02c-0.04-0.04-0.1-0.09-0.19-0.1c-0.07-0.01-0.12,0.02-0.17,0.04
			c-0.12-0.07-0.26-0.09-0.4-0.04c-0.07-0.02-0.13,0-0.17,0.02c-0.11,0.05-0.14,0.16-0.15,0.2c-0.01,0.04-0.04,0.13-0.06,0.15
			c-0.16,0.08-0.21,0.2-0.25,0.29l-0.01,0.02c-0.02,0.05-0.04,0.08-0.05,0.1c-0.06-0.04-0.13-0.06-0.2-0.04
			c-0.08,0.02-0.14,0.07-0.17,0.14c-0.05,0.12-0.17,0.21-0.3,0.3l0,0c-0.01-0.02-0.01-0.05-0.02-0.09
			c-0.01-0.05-0.02-0.12-0.04-0.18l-0.18-0.49l-0.2,0.55c-0.01,0.03-0.02,0.06-0.03,0.09c-0.05,0.15-0.23,0.28-0.34,0.27
			c-0.02,0-0.07,0-0.1-0.13c0-0.01,0-0.02,0-0.03c-0.01-0.05-0.02-0.14-0.09-0.23l-0.16,0.13c-0.05-0.23-0.21-0.47-0.24-0.53
			c-0.05-0.1-0.02-0.29,0.1-0.51c0.12-0.23-0.19-0.76-0.19-0.76c0.42-0.51,0.19-1.16-0.02-1.54C39.66,11.74,39.77,11.64,39.85,11.51
			z M39.05,11.68c0.03,0.04,0.08,0.07,0.19,0.09c0.01,0.01,0.01,0.01,0.02,0.02c0.17,0.2,0.25,0.41,0.32,0.67
			c0.04,0.14,0.05,0.28,0.02,0.42c-0.03,0.11-0.08,0.21-0.16,0.29c-0.05,0.05-0.1,0.11-0.15,0.15c-0.01,0.01-0.02,0.02-0.04,0.03
			c-0.12,0.06-0.34,0.14-0.68,0.19c0,0-0.25,0.18,0.75-0.03c0.05,0.06,0.11,0.13,0.15,0.2c0.06,0.09,0.09,0.15,0.06,0.25
			c0,0.08-0.06,0.19-0.09,0.27c-0.03,0.09-0.06,0.18-0.05,0.28c0.02,0.23,0.24,0.37,0.29,0.58c0.03,0.12,0,0.24-0.07,0.34
			c-0.03,0.04-0.11,0.08-0.13,0.11c-0.01,0.04,0.03,0.1,0.03,0.14c0.01,0.07,0,0.17-0.02,0.24c-0.02,0.08-0.08,0.15-0.15,0.17
			c0.02,0.01,0.02,0.03,0.03,0.04c0.02,0.1,0.02,0.22,0,0.32c-0.03,0.14-0.1,0.22-0.22,0.29c0.03-0.01,0.05,0.02,0.07,0.04
			c0.11,0.14,0.21,0.28,0.3,0.43c0.1,0.16,0.12,0.39,0.13,0.58c0,0.2-0.02,0.4-0.09,0.59c0,0.01-0.01,0.02-0.02,0.03
			c-0.01,0.01-0.03,0.01-0.04,0c-0.06-0.01-0.13-0.02-0.19-0.02c-0.21,0.03-0.24,0.24-0.24,0.42l-0.31-0.34l0,0
			c0,0-0.18,0.6-0.75,0.68c0,0,0.5,0.09,0.88-0.44c0.02,0.04,0.05,0.08,0.07,0.13c0.07,0.11,0.16,0.22,0.26,0.31
			c0.1,0.09,0.21,0.2,0.32,0.26c0.01,0.01,0.02,0.01,0.03,0.01c-0.8,0.43-1.34,0.95-1.62,1.25c-0.03-0.02-0.06-0.04-0.09-0.05
			c0.01-0.07,0.02-0.14,0.02-0.22l0,0c0-0.13-0.01-0.27-0.04-0.39c0.04,0.04,0.09,0.08,0.14,0.12l0.09,0.06l0.03-0.1
			c0.05-0.2,0.02-0.46-0.08-0.71l0,0c-0.09-0.22-0.25-0.43-0.43-0.58c0.13-0.19,0.22-0.44,0.25-0.73l0,0c0.01-0.11,0.01-0.22,0-0.32
			c0.15,0.19,0.34,0.34,0.56,0.42l0.1,0.03l0-0.1c0-0.22-0.09-0.47-0.25-0.7l0,0c-0.13-0.18-0.31-0.32-0.51-0.42
			c0.1-0.2,0.15-0.47,0.15-0.75l0,0c0-0.08-0.01-0.16-0.02-0.25c0.1,0.12,0.22,0.21,0.36,0.28l0.09,0.05l0.01-0.1
			c0.03-0.22-0.03-0.48-0.17-0.72l0,0c-0.12-0.2-0.29-0.38-0.48-0.5c0.01-0.18,0-0.37-0.05-0.57l0,0c-0.02-0.06-0.04-0.11-0.06-0.17
			c0.16,0.1,0.34,0.16,0.52,0.17l0.1,0.01l-0.02-0.1c-0.05-0.21-0.21-0.43-0.42-0.6l0,0c-0.17-0.13-0.38-0.23-0.59-0.27
			c-0.02-0.22-0.09-0.46-0.21-0.68l0,0c-0.16-0.27-0.4-0.52-0.66-0.67l-0.04-0.02c-0.01-0.24-0.09-0.51-0.24-0.76l0,0
			c-0.08-0.12-0.17-0.24-0.28-0.34c0.04,0.01,0.07,0.02,0.08,0.03c0.08,0.02,0.28,0.23,0.36,0.3c0.03,0.03,0.08,0.05,0.14,0.06
			l0.01,0.3c0,0,0.17-0.28,0.35-0.3c0,0,0.43,0.18,0.48,0.62c0.03,0.22,0.03,0.5,0.08,0.71c0.01,0.04,0.02,0.08,0.05,0.11
			c0.03,0.03,0.08,0.04,0.12,0.05c0.26,0.05,0.56,0.02,0.79-0.12c0.11-0.07,0.24-0.16,0.25-0.3c0.01-0.18-0.04-0.35-0.1-0.52
			c-0.04-0.1-0.09-0.21-0.14-0.3c-0.03-0.05-0.06-0.1-0.1-0.14c-0.04-0.05-0.09-0.09-0.13-0.14c-0.01-0.01-0.02-0.02-0.02-0.03
			C38.15,11.28,38.71,11.27,39.05,11.68z M37.72,17.13c0.16,0.09,0.3,0.21,0.41,0.36c0.11,0.16,0.19,0.34,0.22,0.5
			c-0.23-0.11-0.42-0.32-0.54-0.58C37.78,17.32,37.74,17.22,37.72,17.13z M37.28,10.56l0,0.05c0,0.05-0.01,0.1-0.02,0.15
			c-0.03,0.14,0.04,0.24,0.13,0.32c0.02,0.02,0.04,0.03,0.07,0.05c0.01,0.01,0.02,0.01,0.03,0.02c0.23,0.16,0.41,0.36,0.55,0.6
			c0.09,0.16,0.21,0.37,0.25,0.56c0.03,0.16-0.11,0.3-0.24,0.37c-0.18,0.1-0.4,0.12-0.6,0.07c-0.02-0.01-0.04-0.01-0.06-0.03
			c-0.03-0.03-0.03-0.07-0.03-0.11c0-0.09,0-0.17,0-0.26c0,0-0.01-0.12-0.01-0.12c0-0.02,0-0.04-0.01-0.06l0-0.01
			c-0.02-0.39-0.2-0.71-0.56-0.97c-0.07-0.05-0.16-0.1-0.27-0.06c-0.03,0.01-0.05,0.01-0.08,0.01c-0.01,0-0.03,0-0.04,0
			c-0.06,0.01-0.1-0.01-0.14-0.05c-0.25-0.23-0.52-0.37-0.82-0.44c0,0-0.01,0-0.01-0.01c0.03-0.15,0.03-0.28-0.02-0.42
			c0.04-0.03,0.09-0.04,0.13-0.07c0.05-0.03,0.09-0.07,0.13-0.1c0.07-0.06,0.15-0.13,0.24-0.13c0.04,0,0.08,0.01,0.12,0.02
			c0.03,0.01,0.07,0.01,0.1,0.02c0.08,0.01,0.17,0.01,0.24-0.02c0.05-0.02,0.1-0.05,0.15-0.04c0.04,0.01,0.07,0.04,0.11,0.07
			c0.04,0.02,0.08,0.03,0.12,0.04c0.07,0.02,0.13,0,0.18-0.02c0.01-0.01,0.03-0.01,0.04-0.02C37.18,10.1,37.29,10.29,37.28,10.56z
			 M36.18,9.56c0.16,0.07,0.33,0.01,0.33,0.01l0.03-0.01c0.11-0.05,0.19-0.07,0.27-0.07c0.08,0,0.15,0.02,0.2,0.06
			c0.04,0.03,0.06,0.07,0.07,0.1c0.01,0.02,0.02,0.07,0,0.12c-0.01,0.02-0.03,0.04-0.04,0.05c-0.07,0.07-0.18,0.08-0.26,0.03
			c-0.07-0.04-0.12-0.1-0.19-0.12c-0.08-0.02-0.12,0.04-0.19,0.07c-0.11,0.05-0.23-0.01-0.34-0.02c-0.23-0.03-0.38,0.11-0.52,0.27
			c-0.05,0.06-0.13,0.12-0.22,0.1c-0.04-0.01-0.06-0.04-0.09-0.06c-0.04-0.03-0.08-0.05-0.13-0.05C35,10.02,34.91,10.04,34.82,10
			c-0.14-0.06-0.12-0.21-0.04-0.31c0.1-0.13,0.36-0.04,0.47,0.04c0.02,0.02,0.05,0.03,0.07,0.03c0.03,0,0.06-0.01,0.08-0.03
			l0.05-0.05C35.8,9.18,36.02,9.49,36.18,9.56z M33.67,14.74c-0.05,0.02-0.09,0.06-0.13,0.12c-0.01-0.02-0.02-0.04-0.04-0.08
			l-0.01-0.02c-0.04-0.08-0.09-0.21-0.24-0.28c-0.02-0.02-0.05-0.1-0.06-0.15c-0.01-0.04-0.04-0.14-0.15-0.2
			c-0.04-0.02-0.09-0.03-0.17-0.02c-0.14-0.04-0.28-0.03-0.4,0.04c-0.04-0.03-0.1-0.05-0.17-0.04c-0.09,0.01-0.15,0.06-0.19,0.1
			l-0.01-0.02c-0.04-0.08-0.11-0.13-0.2-0.14c-0.09-0.01-0.17,0.03-0.21,0.11l-0.02,0.04c-0.01,0.01-0.02,0.03-0.03,0.04
			c-0.16,0.06-0.25,0.18-0.32,0.28l-0.02,0.03c-0.04,0.05-0.06,0.06-0.06,0.06c-0.01,0-0.03-0.02-0.07-0.07
			c-0.02-0.03-0.08-0.11-0.19-0.12c-0.05,0-0.12,0.01-0.2,0.08c-0.06,0.06-0.1,0.07-0.1,0.07c-0.06-0.02-0.16-0.28-0.15-0.5
			c0-0.05,0.01-0.18-0.11-0.26c-0.07-0.04-0.15-0.05-0.24-0.01c-0.04-0.07-0.11-0.12-0.18-0.13c-0.16-0.03-0.3,0.09-0.4,0.17
			c-0.02,0.02-0.03,0.03-0.04,0.03l-0.1,0.06c-0.16,0.1-0.31,0.2-0.47,0.25c0,0-0.01,0-0.01,0c-0.08-0.03-0.19-0.05-0.31,0.03
			c-0.03,0.02-0.07,0.05-0.12,0.08c-0.18,0.13-0.33,0.22-0.44,0.28c-0.05,0.03-0.11,0.01-0.13-0.05c-0.01-0.04-0.04-0.08-0.09-0.11
			c-0.13-0.07-0.25,0.02-0.3,0.06l-0.06,0.04c-0.29,0.21-0.59,0.42-0.91,0.54c-0.01-0.02-0.02-0.05-0.04-0.07l-0.1-0.16l-0.16,0.1
			c-0.15,0.09-0.29,0.2-0.43,0.3c-0.26,0.19-0.5,0.36-0.79,0.48c0,0,0,0-0.01,0c-0.01-0.06-0.01-0.14-0.01-0.19l0-0.01
			c0-0.09-0.05-0.17-0.14-0.21c-0.08-0.04-0.18-0.03-0.25,0.02c-0.08,0.06-0.16,0.12-0.23,0.18c-0.14,0.12-0.27,0.23-0.45,0.29
			c0-0.01-0.01-0.02-0.01-0.03c-0.02-0.04-0.03-0.08-0.05-0.13c-0.02-0.06-0.09-0.07-0.14-0.04c-0.04,0.03-0.07,0.06-0.1,0.08
			c-0.08,0.06-0.16,0.12-0.24,0.18c-0.14,0.11-0.28,0.22-0.43,0.3c0-0.07-0.04-0.14-0.1-0.19c-0.07-0.05-0.17-0.06-0.26-0.02
			l-0.1,0.04c-0.24,0.11-0.49,0.22-0.72,0.39c0,0-0.01,0-0.01,0.01c0.02-0.06,0.04-0.11,0.07-0.16c0,0,0-0.01,0.01-0.02
			c0.02-0.09,0.07-0.18,0.08-0.28c0.02-0.14-0.12-0.13-0.21-0.07l-0.17,0.1c0,0,0,0-0.01,0c-0.03,0.02-0.08,0.07-0.17,0.14
			c-0.33,0.28-0.57,0.47-0.71,0.54c0.01-0.03,0.04-0.07,0.09-0.13c0.06-0.09,0.05-0.22-0.04-0.29c-0.08-0.08-0.21-0.08-0.31,0
			c-0.24,0.23-0.5,0.39-0.77,0.55c-0.13,0.08-0.27,0.16-0.41,0.26c-0.07,0.04-0.14,0.09-0.21,0.12c0.07-0.22,0.24-0.41,0.42-0.61
			c0.61-0.68,1.35-1.29,2.05-1.89c0.27-0.23,0.55-0.46,0.82-0.7c1.81-1.58,3.69-3.02,5.74-4.39c1.75-1.17,3.52-1.81,5.27-1.9
			c0.55-0.03,1.55-0.01,2.01,0.53c0.22,0.26,0.29,0.7,0.21,1.15c-0.21-0.03-0.39,0.27-0.39,0.27c-0.11-0.06-0.23-0.1-0.35-0.08
			c-0.21,0.03-0.31,0.23-0.26,0.43l0,0.02c0.01,0.03,0.02,0.06,0.02,0.08c-0.01,0.01-0.01,0.02-0.03,0.03
			c-0.01,0.01-0.02,0.01-0.03,0.02c-0.02,0.01-0.03,0.02-0.05,0.03c-0.03,0.02-0.05,0.04-0.08,0.07c-0.05,0.04-0.1,0.08-0.15,0.13
			c-0.22,0.23-0.28,0.5-0.19,0.81c0,0.02,0.01,0.03,0.01,0.05c0.1,0.28,0.07-0.18,0.32-0.3c0.22-0.1,0.41-0.12,0.56-0.11
			c-0.09,0.07-0.17,0.15-0.25,0.24c-0.26,0.3-0.41,0.71-0.41,1.11c-0.02,0-0.03,0.01-0.05,0.01l0,0l0,0
			c-0.34,0.08-0.64,0.38-0.71,0.73l-0.02,0.09l0.09,0c0.15-0.01,0.29-0.08,0.38-0.15c-0.11,0.37-0.09,0.77,0.05,1.11
			C33.89,14.13,33.73,14.43,33.67,14.74z M34.1,14.56c-0.01,0.05-0.02,0.09-0.04,0.13c-0.06,0.16-0.14,0.3-0.24,0.4
			c-0.01,0.01-0.02,0.01-0.04,0.02c-0.03-0.35,0.1-0.71,0.35-0.98c-0.02,0.13-0.03,0.27-0.03,0.39C34.1,14.53,34.1,14.54,34.1,14.56
			z M34.09,12.62C34,12.7,33.9,12.76,33.8,12.79c0.09-0.22,0.28-0.41,0.5-0.49c0,0,0,0.01,0,0.01c-0.03,0.05-0.06,0.1-0.09,0.16
			C34.17,12.52,34.13,12.57,34.09,12.62z M34.23,12.82c0.03-0.09,0.06-0.2,0.11-0.29c0.01-0.02,0.03-0.05,0.04-0.07
			c0,0.01,0.01,0.03,0.01,0.04c0.01,0.06,0.03,0.12,0.05,0.17c0.04,0.18,0.06,0.36,0.05,0.54c-0.02,0.23-0.08,0.44-0.17,0.61
			l-0.05,0.06l-0.01-0.02C34.15,13.55,34.13,13.17,34.23,12.82z M34.25,14.57c0.03-0.15,0.05-0.3,0.04-0.43l0.01-0.01
			c0.02,0.02,0.03,0.04,0.04,0.06c0.02,0.06,0.05,0.12,0.07,0.17c0.04,0.08,0.08,0.15,0.13,0.22c0.03,0.07,0.05,0.14,0.07,0.22
			c0.05,0.23,0.05,0.46,0.01,0.65l-0.09-0.02C34.36,15.18,34.26,14.88,34.25,14.57z M34.39,15.69c-0.03,0.12-0.04,0.25-0.04,0.37
			c-0.02,0.07-0.03,0.13-0.05,0.18c-0.07,0.18-0.18,0.33-0.29,0.43c-0.03-0.36,0.12-0.74,0.39-1C34.4,15.68,34.39,15.68,34.39,15.69
			z M34.69,17.91c-0.06,0.19-0.15,0.35-0.25,0.46c-0.06-0.35,0.05-0.75,0.29-1.04C34.76,17.53,34.74,17.75,34.69,17.91z
			 M34.85,17.15c0,0-0.01-0.01-0.01-0.01L34.8,17.1l-0.01-0.02c-0.19-0.26-0.29-0.59-0.29-0.93c0-0.02,0-0.04,0-0.06
			c0.02-0.11,0.04-0.22,0.04-0.34c0.15,0.2,0.26,0.44,0.31,0.68C34.91,16.69,34.9,16.95,34.85,17.15z M35.02,18.45
			c-0.12-0.29-0.16-0.63-0.11-0.98c0.16,0.19,0.28,0.43,0.35,0.67c0.05,0.17,0.06,0.35,0.05,0.53l0,0.03l-0.01,0.1c0,0.01,0,0,0,0
			c0,0.02-0.01,0.05-0.01,0.07C35.19,18.77,35.1,18.62,35.02,18.45z M35.17,19.34c0.04-0.08,0.08-0.17,0.13-0.24
			c0.01,0.07,0.02,0.14,0.03,0.21c0.01,0.12,0,0.24-0.02,0.36c-0.04,0.2-0.11,0.37-0.21,0.49C35.03,19.9,35.05,19.6,35.17,19.34z
			 M26.45,18.12c-0.11,0.04-0.23,0.1-0.36,0.16c-0.44,0.21-0.93,0.45-1.57,0.27c-0.47-0.16-0.75-0.37-0.89-0.49l0.83-0.07
			l-0.21-0.62c0.15,0.1,0.37,0.24,0.51,0.29l0.04,0.01c0.2,0.07,0.43,0.14,1.06-0.11c0.33-0.14,0.61-0.19,0.85-0.16
			c0.29,0.04,0.5,0.22,0.7,0.39c0.14,0.12,0.29,0.25,0.39,0.4C27.39,17.99,26.9,17.96,26.45,18.12z M27.03,18.16
			c0.32,0,0.62,0.09,0.87,0.26c0.13,0.47-0.17,0.92-0.26,1.04c-0.75-0.04-1.11-0.27-1.25-0.41C26.59,18.92,26.94,18.61,27.03,18.16z
			 M27.36,21.3c-0.64-0.41-0.91-1.58-0.99-2.08c0.37,0.3,1.47,0.7,3.96-0.06l0,0c0.76-0.24,1.52-0.36,2.24-0.36c0,0,0,0,0,0
			c0.97,0,1.79,0.21,2.47,0.5c-0.14,0.34-0.15,0.71-0.02,1.03l0.04,0.1l0.08-0.07c0.15-0.14,0.27-0.38,0.33-0.64
			c0.12,0.28,0.31,0.52,0.55,0.68c-0.14,0.14-0.26,0.35-0.33,0.58c-0.01,0.02-0.01,0.05-0.02,0.07c-0.86-0.29-2.46-0.63-4.58-0.22
			c-0.3,0.08-0.58,0.16-0.85,0.23c0,0,0,0,0,0l0,0c-0.02,0.01-0.05,0.01-0.07,0.02C28.87,21.43,27.95,21.69,27.36,21.3z
			 M28.35,23.61c-0.04,1.24-0.02,2.45,0.08,3.63l-0.98-0.64c-0.18-1.17-0.29-2.42-0.35-3.8L28.35,23.61z M28.48,27.73
			c0.32,3.2,1.17,6.14,2.52,8.69c0.56,1.05,1.21,2.04,1.92,2.93c-0.13,0.16-0.34,0.4-0.62,0.67c-0.4-0.41-0.79-0.83-1.16-1.27
			c-0.7-0.84-1.33-1.75-1.86-2.71c-0.53-0.97-0.97-1.98-1.31-3.03c-0.66-2.03-0.95-4.16-1.04-6.29L28.48,27.73z M22.78,19.97
			l2.64,1.73c0.03,1.37,0.1,2.6,0.23,3.72l-3-1.96C22.65,22.34,22.69,21.17,22.78,19.97z M25.16,40.75
			c-0.01-0.01-1.29-1.27-2.34-4.07c-0.96-2.55-1.91-6.93-1.08-13.37l3.15,2.06c0.01,0.38,0.02,0.76,0.03,1.14
			c0.08,2.2,0.37,4.4,1.05,6.49c0.34,1.04,0.78,2.06,1.31,3.03c0.53,0.96,1.16,1.87,1.86,2.71c0.64,0.77,1.34,1.49,2.08,2.15
			c-1.36,0.9-3.37,1.55-5.74,0.18C25.32,40.93,25.21,40.81,25.16,40.75z M25.9,41.48c0.82,0.39,1.6,0.55,2.32,0.55
			c2.47,0,4.24-1.87,4.8-2.55c0.69,0.85,1.44,1.61,2.22,2.25C30.77,44.74,27.36,42.72,25.9,41.48z M33.64,46.04
			c0.31-0.48,1.5-2.38,1.98-4.02c0.3,0.23,0.61,0.44,0.92,0.63l-0.49,3.8C35.79,46.33,35.04,46.02,33.64,46.04z M35.21,46.33
			c0.47,0.11,0.74,0.24,0.83,0.29c0,0.01-0.01,0.03-0.03,0.05c-0.04,0.05-0.17,0.14-0.54,0.18c-0.19,0.02-0.33,0.08-0.42,0.15
			L35.21,46.33z M36.42,48.35c-0.04,0.03-0.07,0.07-0.1,0.11l-0.02-0.64c0.07,0.02,0.12,0.05,0.15,0.07
			c0.1,0.07,0.11,0.16,0.11,0.16l0.01,0C36.57,48.1,36.57,48.22,36.42,48.35z M36.58,47.81c-0.17-0.15-0.42-0.18-0.64-0.16
			c-0.23,0.02-0.45,0.07-0.68,0.05c-0.09-0.01-0.18-0.03-0.24-0.09c-0.1-0.1-0.09-0.28,0-0.39c0.09-0.11,0.23-0.17,0.37-0.2
			c0.14-0.03,0.29-0.04,0.42-0.08c0.14-0.04,0.27-0.13,0.33-0.26c0.02-0.06,0.03-0.12,0.04-0.18l0.2-1.6
			c0.03-0.27,0.07-0.53,0.1-0.8l0.1-0.8c0.02-0.13,0.03-0.27,0.05-0.4c0-0.03,0.01-0.07,0.01-0.1c0-0.01,0-0.03,0.01-0.05
			c0.01-0.02,0.02,0,0.03,0c0.06,0.03,0.12,0.07,0.17,0.1c0.03,0.02,0.06,0.03,0.09,0.05C36.84,44.54,36.71,46.17,36.58,47.81z
			 M38.92,48.46c-0.03-0.04-0.06-0.08-0.1-0.11c-0.11-0.1-0.14-0.19-0.15-0.25l0.01-0.04c0,0,0.01-0.09,0.11-0.16
			c0.04-0.03,0.09-0.05,0.15-0.07L38.92,48.46z M40.24,47.55c-0.01,0.01-0.02,0.03-0.03,0.04c-0.08,0.08-0.2,0.1-0.31,0.11
			c-0.21,0.01-0.42-0.04-0.64-0.05c-0.21-0.01-0.44,0.02-0.61,0.15c-0.12-1.56-0.25-3.12-0.37-4.68c-0.01-0.07-0.01-0.13,0.02-0.19
			c0.05-0.1,0.17-0.15,0.28-0.18c0.14,1.18,0.29,2.36,0.43,3.54c0.02,0.2,0.06,0.42,0.21,0.55c0.18,0.16,0.45,0.13,0.67,0.19
			C40.1,47.08,40.4,47.3,40.24,47.55z M40.19,47c-0.1-0.07-0.23-0.13-0.42-0.15c-0.37-0.04-0.5-0.13-0.54-0.18
			c-0.02-0.02-0.02-0.04-0.03-0.05c0.09-0.05,0.35-0.18,0.83-0.29L40.19,47z M41.6,46.04c-1.4-0.02-2.16,0.29-2.41,0.42l-0.49-3.81
			c0.3-0.18,0.6-0.39,0.92-0.63C40.1,43.65,41.29,45.55,41.6,46.04z M37.62,42.58c-0.8-0.39-1.73-1.02-2.68-1.91
			c0.03-0.09,0.03-0.2,0.03-0.29c0-0.14,0-0.28,0.09-0.34c0.02-0.01,0.03-0.02,0.05-0.03c0.03-0.01,0.07-0.03,0.1-0.06
			c0.03-0.03,0.06-0.07,0.07-0.11c0.01-0.02,0.02-0.05,0.03-0.06c0.05-0.05,0.12-0.05,0.21-0.06c0.1-0.01,0.22-0.02,0.31-0.11
			c0.08-0.08,0.11-0.2,0.07-0.3c-0.01-0.02-0.02-0.04-0.03-0.06c-0.01-0.01-0.02-0.02-0.02-0.03c-0.02-0.05,0-0.1,0.03-0.15
			c0.08-0.11,0.26-0.17,0.38-0.16c0.05,0,0.1,0.01,0.15,0.02c0.14,0.02,0.29,0.04,0.42-0.05c0.05-0.04,0.08-0.08,0.12-0.13
			c0.04-0.05,0.07-0.1,0.12-0.11c0.03-0.01,0.07-0.01,0.11-0.01c0.08,0,0.17,0,0.24-0.08l0.01-0.01c0.02-0.05,0.03-0.05,0.09-0.05
			l0.85,0.05c0.05,0,0.11,0.01,0.14,0.03c0.02,0.02,0.05,0.04,0.07,0.07c0.03,0.03,0.06,0.07,0.1,0.1c0.09,0.06,0.23,0.07,0.36,0.01
			c0.04-0.02,0.07-0.03,0.1-0.05c0.06-0.03,0.11-0.06,0.17-0.07c0.1-0.03,0.27,0.03,0.34,0.13c0.04,0.06,0.04,0.11,0.01,0.16
			c-0.01,0.01-0.02,0.02-0.03,0.02c-0.03,0.02-0.08,0.05-0.1,0.11c-0.03,0.1,0.05,0.18,0.15,0.22l0.03,0.01
			c0.04,0.01,0.07,0.02,0.08,0.03c0.04,0.09-0.01,0.17-0.1,0.3c-0.05,0.08-0.11,0.17-0.13,0.27l0,0.01l0,0.01
			c0.01,0.11,0.12,0.14,0.18,0.16c0.07,0.02,0.23,0.09,0.25,0.21c0,0.02,0,0.04,0,0.06c0,0.04,0,0.09,0.02,0.14
			c0.01,0.03,0.03,0.05,0.05,0.08c0.01,0.01,0.02,0.03,0.03,0.04c0.01,0.08,0.03,0.14,0.07,0.19
			C39.28,41.62,38.39,42.21,37.62,42.58z M40,41.71c0.73-0.6,1.49-1.34,2.22-2.24c0.55,0.67,2.32,2.56,4.8,2.56
			c0.71,0,1.49-0.16,2.31-0.54C47.86,42.73,44.45,44.72,40,41.71z M52.42,36.69c-1.05,2.8-2.31,4.04-2.32,4.05
			c-0.06,0.06-0.17,0.19-0.33,0.35c-2.36,1.36-4.36,0.72-5.72-0.17c0.74-0.66,1.44-1.38,2.08-2.14c0.7-0.84,1.33-1.75,1.86-2.71
			c0.53-0.97,0.97-1.98,1.31-3.03c0.68-2.09,0.97-4.29,1.05-6.49c0.01-0.39,0.02-0.79,0.03-1.18l3.13-2.05
			C54.34,29.76,53.38,34.14,52.42,36.69z M54.94,22.96l-0.93-0.2l0.19-0.93l1.85-0.4L54.94,22.96z"/>
		<path class="st4" d="M43.18,19.88c0.1,0.01,0.2,0.02,0.31,0.02c0.06,0.01,0.09,0.02,0.12,0.03c0.04,0.02,0.06,0.07,0.06,0.13
			c0,0.05-0.01,0.1-0.01,0.15c0,0.04,0,0.06,0,0.07l0.01,0.03c0.05,0,0.11,0.01,0.16,0.02l0-0.02c-0.02-0.01-0.03-0.03-0.03-0.06
			c0-0.02,0-0.04,0-0.08c0-0.04,0.01-0.08,0.01-0.12c0.01-0.05,0-0.09-0.02-0.12c-0.02-0.03-0.04-0.05-0.08-0.07
			c0.05-0.02,0.08-0.04,0.11-0.07c0.03-0.03,0.05-0.07,0.06-0.13c0.01-0.11-0.02-0.18-0.11-0.23c-0.05-0.03-0.11-0.04-0.19-0.05
			c-0.16-0.01-0.32-0.03-0.48-0.04c-0.02,0.31-0.04,0.61-0.06,0.92c0.04,0,0.09,0.01,0.13,0.01C43.16,20.15,43.17,20.01,43.18,19.88
			z M43.21,19.47c0.11,0.01,0.23,0.02,0.34,0.03c0.05,0,0.08,0.02,0.11,0.03c0.05,0.03,0.07,0.08,0.06,0.14
			c-0.01,0.06-0.03,0.1-0.07,0.12c-0.04,0.02-0.09,0.03-0.16,0.02c-0.1-0.01-0.21-0.02-0.31-0.03
			C43.2,19.67,43.21,19.57,43.21,19.47z"/>
		<path class="st4" d="M44.74,20.28c0.05-0.07,0.09-0.15,0.11-0.25c0.03-0.12,0.02-0.23-0.03-0.32c-0.06-0.1-0.16-0.17-0.3-0.19
			c-0.14-0.02-0.28-0.05-0.41-0.06c-0.05,0.3-0.09,0.61-0.14,0.91c0.13,0.02,0.26,0.04,0.38,0.06
			C44.52,20.45,44.64,20.4,44.74,20.28z M44.12,20.27c0.04-0.23,0.07-0.46,0.11-0.7c0.08,0.01,0.16,0.03,0.24,0.04
			c0.11,0.02,0.18,0.06,0.22,0.14c0.04,0.07,0.04,0.16,0.02,0.27c-0.01,0.03-0.02,0.06-0.03,0.09c-0.02,0.05-0.05,0.1-0.08,0.13
			c-0.04,0.04-0.09,0.06-0.14,0.07c-0.03,0-0.07,0-0.11-0.01C44.27,20.3,44.2,20.28,44.12,20.27z"/>
		<path class="st4" d="M45.64,20.6c-0.19-0.05-0.38-0.1-0.56-0.15c0.02-0.1,0.05-0.2,0.07-0.3c0.18,0.04,0.35,0.09,0.53,0.14
			c0.01-0.03,0.02-0.07,0.03-0.1c-0.18-0.05-0.35-0.09-0.53-0.14c0.02-0.09,0.05-0.18,0.07-0.27c0.2,0.05,0.39,0.1,0.59,0.15
			c0.01-0.04,0.02-0.07,0.03-0.11c-0.24-0.07-0.48-0.13-0.73-0.18c-0.07,0.3-0.14,0.6-0.21,0.9c0.23,0.05,0.46,0.11,0.68,0.17
			C45.62,20.67,45.63,20.63,45.64,20.6z"/>
		<path class="st4" d="M45.89,20.79c0.08-0.24,0.15-0.47,0.23-0.71c0.09,0.29,0.16,0.58,0.23,0.86c0.05,0.02,0.09,0.03,0.14,0.05
			c0.11-0.29,0.22-0.57,0.34-0.86c-0.04-0.02-0.08-0.03-0.12-0.05c-0.09,0.23-0.18,0.47-0.27,0.7c-0.07-0.29-0.14-0.58-0.22-0.86
			c-0.05-0.02-0.1-0.03-0.16-0.05c-0.09,0.29-0.19,0.59-0.28,0.88C45.81,20.76,45.85,20.77,45.89,20.79z"/>
		<path class="st4" d="M40.99,20.33c0.04,0,0.09-0.01,0.13-0.01c-0.01-0.12-0.02-0.25-0.04-0.37c0.11-0.2,0.22-0.39,0.35-0.58
			c-0.06,0-0.11,0.01-0.17,0.01c-0.09,0.16-0.18,0.31-0.26,0.47c-0.11-0.14-0.23-0.27-0.34-0.41c-0.06,0.01-0.11,0.01-0.17,0.02
			c0.16,0.16,0.31,0.33,0.45,0.5C40.96,20.08,40.98,20.2,40.99,20.33z"/>
		<path class="st4" d="M42.37,20.28c0.16,0,0.28-0.05,0.37-0.15c0.08-0.09,0.12-0.2,0.13-0.34c0.01-0.13-0.02-0.23-0.09-0.32
			c-0.08-0.11-0.22-0.16-0.4-0.16c-0.18,0-0.31,0.06-0.4,0.18c-0.07,0.09-0.1,0.2-0.1,0.32c0,0.14,0.05,0.25,0.13,0.34
			C42.11,20.23,42.22,20.28,42.37,20.28z M42.13,19.51c0.07-0.07,0.16-0.1,0.26-0.1c0.11,0,0.2,0.03,0.26,0.1
			c0.06,0.07,0.09,0.16,0.08,0.26c0,0.1-0.03,0.19-0.09,0.27c-0.05,0.08-0.14,0.12-0.26,0.11c-0.12,0-0.21-0.03-0.27-0.1
			c-0.05-0.07-0.09-0.15-0.09-0.26C42.03,19.68,42.06,19.58,42.13,19.51z"/>
		<path class="st4" d="M28.03,21.01c-0.1-0.26-0.2-0.52-0.3-0.79c-0.04,0.02-0.09,0.03-0.13,0.05c0.12,0.3,0.23,0.59,0.35,0.89
			c0.2-0.07,0.4-0.14,0.6-0.2c-0.01-0.04-0.02-0.07-0.03-0.11C28.35,20.9,28.19,20.96,28.03,21.01z"/>
		<path class="st4" d="M28.43,20.03c0.1,0.3,0.2,0.6,0.29,0.91c0.04-0.01,0.09-0.02,0.13-0.04c-0.09-0.3-0.18-0.61-0.28-0.91
			C28.52,20.01,28.48,20.02,28.43,20.03z"/>
		<path class="st4" d="M29.63,20.22c-0.03-0.02-0.07-0.03-0.13-0.04c0.03-0.02,0.05-0.05,0.07-0.07c0.03-0.05,0.04-0.1,0.02-0.15
			c-0.01-0.05-0.04-0.09-0.08-0.12c-0.07-0.05-0.16-0.07-0.28-0.04c-0.15,0.03-0.3,0.07-0.44,0.11c0.09,0.3,0.18,0.61,0.27,0.91
			c0.13-0.04,0.27-0.07,0.4-0.1c0.13-0.03,0.21-0.08,0.25-0.17c0.03-0.06,0.04-0.11,0.02-0.17C29.72,20.3,29.69,20.25,29.63,20.22z
			 M29.04,20.25c-0.03-0.09-0.05-0.19-0.08-0.28c0.08-0.02,0.17-0.04,0.25-0.06c0.06-0.01,0.11-0.02,0.14-0.02
			c0.06,0.01,0.1,0.04,0.11,0.1c0.01,0.06,0,0.11-0.04,0.14c-0.03,0.02-0.07,0.04-0.13,0.05C29.2,20.22,29.12,20.23,29.04,20.25z
			 M29.59,20.51c-0.02,0.05-0.08,0.09-0.16,0.1c-0.1,0.02-0.19,0.05-0.28,0.07c-0.03-0.11-0.06-0.22-0.09-0.32
			c0.09-0.02,0.18-0.04,0.27-0.06c0.06-0.01,0.1-0.02,0.14-0.01c0.07,0.01,0.11,0.05,0.13,0.12C29.61,20.44,29.61,20.47,29.59,20.51
			z"/>
		<path class="st4" d="M30.67,20.33c-0.2,0.03-0.4,0.06-0.6,0.09c-0.02-0.11-0.04-0.21-0.06-0.32c0.19-0.03,0.37-0.06,0.56-0.09
			c-0.01-0.04-0.01-0.07-0.02-0.11c-0.19,0.03-0.38,0.05-0.57,0.09c-0.02-0.09-0.04-0.19-0.06-0.28c0.21-0.04,0.42-0.07,0.63-0.1
			c-0.01-0.04-0.01-0.08-0.02-0.12c-0.26,0.03-0.52,0.07-0.77,0.12c0.07,0.31,0.14,0.62,0.2,0.93c0.24-0.04,0.48-0.08,0.73-0.11
			C30.68,20.4,30.67,20.37,30.67,20.33z"/>
		<path class="st4" d="M31.07,20.37c-0.02-0.13-0.03-0.27-0.05-0.4c0.11-0.01,0.21-0.02,0.32-0.03c0.06,0,0.1,0,0.13,0.01
			c0.05,0.02,0.08,0.06,0.08,0.12c0.01,0.05,0.02,0.1,0.02,0.16c0,0.04,0.01,0.06,0.01,0.07l0.01,0.03c0.06,0,0.11-0.01,0.17-0.01
			l0-0.02c-0.02-0.01-0.04-0.03-0.05-0.05c-0.01-0.02-0.01-0.04-0.01-0.08c0-0.04-0.01-0.09-0.02-0.13
			c-0.01-0.05-0.02-0.09-0.04-0.12c-0.02-0.02-0.06-0.04-0.1-0.05c0.04-0.02,0.08-0.06,0.1-0.09c0.02-0.04,0.03-0.08,0.03-0.14
			c-0.01-0.11-0.07-0.18-0.17-0.21c-0.06-0.02-0.12-0.02-0.21-0.02c-0.17,0.01-0.33,0.03-0.5,0.05c0.05,0.31,0.09,0.63,0.13,0.94
			C30.98,20.38,31.02,20.38,31.07,20.37z M31.31,19.51c0.05,0,0.09,0,0.12,0.01c0.06,0.02,0.09,0.07,0.1,0.13
			c0.01,0.06-0.01,0.11-0.05,0.13c-0.04,0.03-0.09,0.04-0.15,0.05c-0.11,0.01-0.22,0.02-0.33,0.03c-0.01-0.11-0.03-0.22-0.04-0.32
			C31.08,19.53,31.2,19.51,31.31,19.51z"/>
		<path class="st4" d="M32.08,19.46c0.02,0.28,0.03,0.56,0.04,0.84c0.05,0,0.09,0,0.14,0c-0.01-0.28-0.02-0.56-0.03-0.84
			c0.12,0,0.24,0,0.37,0c0-0.04,0-0.08,0-0.11c-0.3,0-0.59,0-0.88,0.01c0,0.04,0.01,0.08,0.01,0.11
			C31.84,19.47,31.96,19.46,32.08,19.46z"/>
		<path class="st4" d="M32.66,20.29c0.04-0.09,0.08-0.19,0.11-0.28c0.14,0,0.28,0.01,0.42,0.02c0.03,0.1,0.06,0.19,0.09,0.29
			c0.05,0,0.1,0.01,0.15,0.01c-0.11-0.33-0.22-0.65-0.35-0.98c-0.06,0-0.11,0-0.17-0.01c-0.14,0.31-0.27,0.63-0.4,0.94
			C32.57,20.29,32.62,20.29,32.66,20.29z M32.99,19.49c0.05,0.14,0.11,0.29,0.15,0.43c-0.11-0.01-0.22-0.01-0.33-0.01
			C32.88,19.77,32.93,19.63,32.99,19.49z"/>
		<path class="st4" d="M34.39,20.23c0.05-0.08,0.09-0.16,0.1-0.26c0.02-0.13-0.01-0.24-0.07-0.34c-0.07-0.1-0.19-0.17-0.34-0.19
			c-0.15-0.02-0.3-0.03-0.45-0.05c-0.02,0.32-0.03,0.63-0.06,0.95c0.14,0.01,0.28,0.03,0.42,0.05
			C34.16,20.41,34.3,20.36,34.39,20.23z M33.72,20.25c0.02-0.24,0.04-0.49,0.05-0.73c0.09,0.01,0.18,0.02,0.26,0.03
			c0.12,0.01,0.21,0.06,0.25,0.13c0.05,0.07,0.07,0.17,0.05,0.28c0,0.03-0.01,0.06-0.02,0.1c-0.02,0.06-0.05,0.11-0.08,0.14
			c-0.04,0.04-0.09,0.07-0.15,0.08c-0.03,0-0.07,0-0.12,0C33.89,20.27,33.8,20.26,33.72,20.25z"/>
		<path class="st4" d="M38.67,36.87l-0.02,0v-0.09h-0.14v-0.24h0.26v-0.54v-0.08l-0.01,0l-0.2,0l-0.06,0l0-0.18
			c0-0.05-0.02-0.09-0.06-0.11c-0.04-0.02-0.09-0.03-0.13,0c-0.04,0.02-0.06,0.07-0.06,0.11v0.18h-0.22c-0.07,0-0.07,0-0.17,0
			l-0.05,0v-0.18c0-0.05-0.02-0.09-0.06-0.11c-0.04-0.02-0.09-0.02-0.13,0c-0.04,0.02-0.06,0.07-0.06,0.11v0.18l-0.05,0
			c-0.1,0-0.17,0-0.17,0h-0.22v-0.18c0-0.05-0.02-0.09-0.06-0.11c-0.04-0.02-0.09-0.02-0.13,0c-0.04,0.02-0.06,0.07-0.06,0.11v0.18
			h-0.26v0.62h0.26v0.24h-0.18v0.09l-0.02,0l-0.17-0.22h-0.66l0.3,0.44l0.37,0.24l1.15,0.01v0l0,0l0,0v0l1.15-0.01l0.37-0.24
			l0.3-0.44h-0.66L38.67,36.87z M38.2,36.08h0.22c0.05,0,0.08,0,0.16,0l0.06,0v0.32h-0.26H38.2V36.08z M38.27,36.55v0.24H38.1v0.1
			l-0.16,0v-0.1h-0.11v-0.24H38.27z M37.48,36.08l0.05,0c0.1,0,0.15-0.03,0.17-0.05c0.02,0.02,0.07,0.05,0.17,0.05l0.05,0v0.32
			h-0.24h-0.2V36.08z M37.58,36.55v0.24h-0.15v0.1l-0.16,0v-0.1h-0.13v-0.24H37.58z M36.77,36.4v-0.32h0.44v0.32h-0.22H36.77z
			 M39.23,36.79l-0.13,0.2l-0.3,0.19l-1.11,0.01l-1.11-0.01l-0.3-0.19l-0.13-0.2h0.31l0.17,0.22l0.23,0v-0.09h0.27v0.09l0.45,0.01
			v-0.1h0.11h0h0.11v0.1l0.45-0.01v-0.09h0.27v0.09l0.23,0l0.17-0.22H39.23z"/>
		<path class="st4" d="M38.67,40.98l-0.02,0v-0.09h-0.14v-0.24h0.26v-0.54v-0.08l-0.01,0l-0.2,0l-0.06,0l0-0.18
			c0-0.05-0.02-0.09-0.06-0.11c-0.04-0.02-0.09-0.03-0.13,0c-0.04,0.02-0.06,0.07-0.06,0.11v0.18h-0.22c-0.07,0-0.07,0-0.17,0
			l-0.05,0v-0.18c0-0.05-0.02-0.09-0.06-0.11c-0.04-0.02-0.09-0.02-0.13,0c-0.04,0.02-0.06,0.07-0.06,0.11v0.18l-0.05,0
			c-0.1,0-0.17,0-0.17,0h-0.22v-0.18c0-0.05-0.02-0.09-0.06-0.11c-0.04-0.02-0.09-0.02-0.13,0c-0.04,0.02-0.06,0.07-0.06,0.11v0.18
			h-0.26v0.62h0.26v0.24h-0.18v0.09l-0.02,0l-0.17-0.22h-0.66l0.3,0.44l0.37,0.24l1.15,0.01v0l0,0l0,0v0l1.15-0.01l0.37-0.24
			l0.3-0.44h-0.66L38.67,40.98z M38.2,40.18h0.22c0.05,0,0.08,0,0.16,0l0.06,0v0.32h-0.26H38.2V40.18z M38.27,40.65v0.24H38.1v0.1
			l-0.16,0v-0.1h-0.11v-0.24H38.27z M37.48,40.18l0.05,0c0.1,0,0.15-0.03,0.17-0.05c0.02,0.02,0.07,0.05,0.17,0.05l0.05,0v0.32
			h-0.24h-0.2V40.18z M37.58,40.65v0.24h-0.15v0.1l-0.16,0v-0.1h-0.13v-0.24H37.58z M36.77,40.51v-0.32h0.44v0.32h-0.22H36.77z
			 M39.23,40.9l-0.13,0.2l-0.3,0.19l-1.11,0.01l-1.11-0.01l-0.3-0.19l-0.13-0.2h0.31l0.17,0.22l0.23,0v-0.09h0.27v0.09l0.45,0.01
			v-0.1h0.11h0h0.11v0.1l0.45-0.01v-0.09h0.27v0.09l0.23,0l0.17-0.22H39.23z"/>
		<path class="st4" d="M35.3,18.79C35.3,18.79,35.3,18.79,35.3,18.79C35.29,18.79,35.3,18.79,35.3,18.79z"/>
	</g>
	<g>
		
			<rect x="26.07" y="79.16" transform="matrix(-1.727744e-06 -1 1 -1.727744e-06 -61.2341 116.7858)" class="st1" width="3.42" height="19.7"/>
		
			<rect x="40.84" y="84.09" transform="matrix(-1.727746e-06 -1 1 -1.727746e-06 -46.46 131.5602)" class="st2" width="3.42" height="9.84"/>
		
			<rect x="50.69" y="84.09" transform="matrix(-1.727743e-06 -1 1 -1.727743e-06 -36.6159 141.4043)" class="st3" width="3.42" height="9.84"/>
	</g>
</g>
</svg>
